<svg width="334" height="126" viewBox="0 0 334 126" fill="none" xmlns="http://www.w3.org/2000/svg">
<path fill-rule="evenodd" clip-rule="evenodd" d="M280.267 56.9202C219.428 101.97 131.225 125.92 55.2911 125.92C-51.1493 125.92 -147.003 86.4438 -219.54 20.7403C-225.238 15.5808 -220.159 8.52635 -213.302 12.5233C-135.051 58.1941 -38.2768 85.7113 61.6718 85.7113C129.098 85.7113 203.206 71.6661 271.41 42.6521C281.711 38.2729 290.33 49.4517 280.267 56.9202Z" fill="white"/>
<path fill-rule="evenodd" clip-rule="evenodd" d="M305.583 27.9221C297.806 17.9376 254.157 23.1926 234.538 25.5494C228.602 26.266 227.681 21.0588 233.03 17.2847C267.854 -7.25459 324.916 -0.168293 331.55 8.04863C338.233 16.3293 329.789 73.7362 297.171 101.126C292.155 105.33 287.378 103.085 289.6 97.5271C296.933 79.1027 313.377 37.9226 305.583 27.9221Z" fill="white"/>
</svg>
