<svg width="20" height="20" viewBox="0 0 20 20" fill="none" xmlns="http://www.w3.org/2000/svg">
<path d="M10.0001 19.2857C15.1284 19.2857 19.2858 15.1283 19.2858 9.99995C19.2858 4.87159 15.1284 0.714233 10.0001 0.714233C4.87171 0.714233 0.714355 4.87159 0.714355 9.99995C0.714355 15.1283 4.87171 19.2857 10.0001 19.2857Z" stroke="#C4C4C4" stroke-miterlimit="10"/>
<path d="M6.14279 8.85723C6.61618 8.85723 6.99993 8.47347 6.99993 8.00009C6.99993 7.5267 6.61618 7.14294 6.14279 7.14294C5.6694 7.14294 5.28564 7.5267 5.28564 8.00009C5.28564 8.47347 5.6694 8.85723 6.14279 8.85723Z" fill="#C4C4C4"/>
<path d="M14 8.85723C14.4734 8.85723 14.8571 8.47347 14.8571 8.00009C14.8571 7.5267 14.4734 7.14294 14 7.14294C13.5266 7.14294 13.1428 7.5267 13.1428 8.00009C13.1428 8.47347 13.5266 8.85723 14 8.85723Z" fill="#C4C4C4"/>
<path d="M15.2856 15C14.1428 13.2857 12.2856 12.1429 9.99993 12.1429C7.71422 12.1429 5.85707 13.2857 4.71422 15" stroke="#C4C4C4" stroke-miterlimit="10"/>
</svg>
