<svg width="35" height="35" viewBox="0 0 35 35" fill="none" xmlns="http://www.w3.org/2000/svg">
<path d="M17.5 35C27.165 35 35 27.165 35 17.5C35 7.83502 27.165 0 17.5 0C7.83502 0 0 7.83502 0 17.5C0 27.165 7.83502 35 17.5 35Z" fill="#0068FF"/>
<path d="M14.3725 21.7543C14.4645 22.2142 14.0276 22.8121 13.4987 22.8351C12.9008 22.8581 12.2799 22.8581 11.682 22.8581C10.8082 22.8581 9.91131 22.8351 9.03746 22.8581C8.8305 22.8581 8.57754 22.9501 8.41657 23.0651C7.86466 23.433 7.33575 23.8469 6.71486 24.2838C6.71486 23.8699 6.69186 23.502 6.71486 23.134C6.73786 22.8811 6.62287 22.8121 6.39291 22.8351C5.95599 22.8581 5.51906 22.8581 5.05914 22.8351C4.48424 22.7891 4.07031 22.3522 4.07031 21.7773C4.07031 19.0407 4.07031 16.2812 4.07031 13.5447C4.07031 12.9468 4.57623 12.4639 5.17412 12.4639C7.91065 12.4639 10.6472 12.4639 13.3607 12.4639C13.8896 12.4639 14.3036 12.8318 14.3955 13.3607C12.4869 13.3607 10.5782 13.3607 8.64653 13.3607C8.02563 13.3607 7.58871 13.6597 7.49672 14.2576C7.40474 14.8325 7.54272 15.3844 8.11762 15.6603C8.25559 15.7293 8.39357 15.7523 8.53155 15.7523C9.29042 15.7523 10.0723 15.7523 10.9001 15.7523C10.5322 16.2812 10.1643 16.7411 9.81933 17.2241C9.03746 18.2819 8.25559 19.3627 7.47373 20.4205C7.26676 20.7195 7.28976 21.0414 7.40474 21.3404C7.56571 21.7083 7.86466 21.8923 8.2556 21.9153C10.0953 21.9382 11.935 21.9382 13.7746 21.9153C13.9586 21.9153 14.1656 21.8003 14.3725 21.7543Z" fill="white"/>
<path d="M20.8804 18.7417C20.8804 19.4776 20.8804 20.1905 20.8804 20.9263C20.8574 21.6162 20.2365 22.0302 19.6616 21.7312C19.5236 21.6622 19.4546 21.5012 19.3167 21.4093C19.2477 21.3633 19.1097 21.3403 19.0867 21.3863C18.2589 22.2831 16.6261 22.0532 15.7753 20.9723C14.7175 19.5926 14.8094 17.385 16.0742 16.1892C16.8561 15.4533 18.2359 15.2693 18.9947 16.0512C19.1327 16.1892 19.2247 16.2122 19.3627 16.0282C19.6156 15.7062 19.9376 15.5913 20.2595 15.7062C20.6045 15.8212 20.8344 16.1432 20.8574 16.5571C20.9034 17.27 20.8804 18.0058 20.8804 18.7417ZM19.2247 18.7187C19.1097 18.3738 19.0407 18.0058 18.8568 17.7069C18.4428 17.017 17.454 17.04 17.0401 17.7069C16.6261 18.3508 16.6491 19.0177 16.9941 19.6846C17.178 20.0755 17.523 20.2595 17.9599 20.2595C18.3968 20.2595 18.7418 20.0525 18.9257 19.6616C19.0637 19.3856 19.1327 19.0637 19.2247 18.7187Z" fill="white"/>
<path d="M26.9284 15.5455C28.4232 15.5455 29.6419 16.6953 29.8029 18.2131C29.8949 19.0639 29.7799 19.8228 29.366 20.5817C28.3312 22.3984 25.5257 22.4213 24.4678 20.5587C23.709 19.2019 23.8929 17.3162 25.0427 16.2814C25.5717 15.7755 26.1925 15.5455 26.9284 15.5455ZM25.6406 18.673C25.7556 19.0409 25.7786 19.3859 25.9166 19.6618C26.3075 20.4437 27.3883 20.4897 27.8483 19.7308C28.2392 19.0639 28.2392 18.351 27.8253 17.7072C27.4113 17.0403 26.4685 16.9943 26.0316 17.6612C25.8476 17.9601 25.7786 18.351 25.6406 18.673Z" fill="white"/>
<path d="M23.341 17.4309C23.341 18.6037 23.341 19.7535 23.341 20.9263C23.341 21.4782 23.019 21.8232 22.5131 21.8232C22.0302 21.8232 21.7083 21.4552 21.7083 20.9263C21.7083 18.6037 21.7083 16.2581 21.7083 13.9355C21.7083 13.3836 22.0762 12.9927 22.5361 12.9927C23.019 12.9927 23.341 13.3836 23.341 13.9355C23.341 15.0853 23.341 16.2581 23.341 17.4309Z" fill="white"/>
<path d="M14.3725 19.6847C13.2917 19.6847 12.2109 19.6847 11.0381 19.6847C12.1649 18.121 13.2457 16.6493 14.3725 15.1085C14.3725 16.6952 14.3725 18.213 14.3725 19.6847Z" fill="white"/>
<path d="M32.0105 16.8329C31.9875 14.7402 31.0906 13.4065 28.791 13.2455C29.136 12.9465 29.4119 13.0385 29.6879 13.0845C31.1136 13.3605 31.8265 14.3723 32.1714 15.6831C32.2404 15.936 32.2634 16.189 32.2864 16.4649C32.2864 16.6029 32.2174 16.7179 32.1714 16.8559C32.1024 16.8329 32.0564 16.8329 32.0105 16.8329Z" fill="white"/>
<path d="M29.136 13.9813C30.1478 14.0043 30.9987 14.7172 31.2287 15.683C31.2976 15.936 31.3206 16.1889 31.3436 16.4419C31.3436 16.5339 31.2746 16.6489 31.2287 16.7408C31.1827 16.6489 31.1137 16.5569 31.1137 16.4649C31.0907 15.959 30.9757 15.4761 30.6767 15.0391C30.3548 14.5792 29.9409 14.3033 29.366 14.2803C29.297 14.2803 29.228 14.2803 29.182 14.2573C29.09 14.2113 28.998 14.1423 28.8831 14.0963C28.998 14.0503 29.113 14.0043 29.136 13.9813Z" fill="white"/>
<path d="M30.2628 16.6953C30.2398 16.5803 30.2168 16.4653 30.2168 16.3504C30.1478 15.7525 29.9868 15.3155 29.251 15.1776C29.159 15.1546 29.09 15.0396 29.021 14.9706C29.113 14.9476 29.228 14.8786 29.3199 14.9016C30.0558 15.0626 30.5387 15.6835 30.4928 16.4423C30.4928 16.5343 30.4238 16.6033 30.3778 16.6953C30.3548 16.6953 30.3088 16.6953 30.2628 16.6953Z" fill="white"/>
</svg>
