<svg width="29" height="29" viewBox="0 0 29 29" fill="none" xmlns="http://www.w3.org/2000/svg">
<path d="M1.26289 19.8584C1.11705 19.8584 0.977033 19.7681 0.921612 19.6224C0.568665 18.6931 0.311976 17.7231 0.157379 16.7384C0.125293 16.5403 0.262388 16.3539 0.460739 16.3219C0.662006 16.2927 0.845772 16.4267 0.877858 16.6248C1.0237 17.5599 1.26872 18.4805 1.60417 19.3631C1.67418 19.5525 1.58084 19.7622 1.39124 19.8321C1.3504 19.8496 1.30664 19.8584 1.26289 19.8584ZM0.36448 14.1428C0.358647 14.1428 0.352813 14.1428 0.346979 14.1428C0.145712 14.1341 -0.00888517 13.9622 -0.000134413 13.7612C0.0494532 12.7649 0.201133 11.7716 0.449071 10.8132C0.498659 10.618 0.699926 10.5015 0.892442 10.551C1.08788 10.6005 1.20455 10.8015 1.15497 10.9938C0.918695 11.9056 0.772849 12.8465 0.729095 13.7933C0.720344 13.9914 0.556997 14.1428 0.36448 14.1428ZM1.82294 8.54677C1.76752 8.54677 1.7121 8.53511 1.65959 8.50889C1.47874 8.41859 1.40582 8.20011 1.49624 8.01949C1.93962 7.13099 2.47633 6.28328 3.09472 5.49965C3.22014 5.34235 3.44766 5.31321 3.60809 5.43848C3.76561 5.56374 3.79478 5.79096 3.66935 5.95119C3.08305 6.69403 2.57259 7.50096 2.15255 8.34576C2.08546 8.47102 1.95712 8.54677 1.82294 8.54677ZM5.40491 3.9994C5.29991 3.9994 5.19781 3.95571 5.12489 3.86831C4.99655 3.71392 5.01405 3.48378 5.16864 3.35561C5.93288 2.71472 6.76128 2.14958 7.63927 1.68057C7.81721 1.58443 8.03889 1.65144 8.13223 1.82914C8.22849 2.00684 8.1614 2.22823 7.98347 2.32145C7.15215 2.77007 6.36166 3.30317 5.63827 3.91201C5.57118 3.97318 5.48659 3.9994 5.40491 3.9994ZM10.5037 1.25817C10.3462 1.25817 10.2003 1.15621 10.1537 0.995987C10.0953 0.803722 10.2062 0.599804 10.3987 0.544455C11.3525 0.264797 12.3413 0.0812708 13.336 -0.000296287C13.5373 -0.0148618 13.7123 0.133707 13.7298 0.334711C13.7473 0.535716 13.5956 0.710502 13.3944 0.727981C12.4493 0.803722 11.51 0.978508 10.6058 1.24651C10.5737 1.25525 10.5387 1.25817 10.5037 1.25817Z" fill="#242D3C"/>
<path d="M14.9521 29C14.7567 29 14.5933 28.8426 14.5875 28.6475C14.5816 28.4465 14.7392 28.2775 14.9404 28.2717C15.8884 28.2425 16.8335 28.1202 17.7523 27.8988C17.9478 27.8522 18.1461 27.9716 18.1928 28.1697C18.2395 28.3649 18.1199 28.563 17.9215 28.6096C16.956 28.8397 15.9613 28.9708 14.9608 29C14.9579 29 14.955 29 14.9521 29ZM12.0468 28.7902C12.0264 28.7902 12.0031 28.7873 11.9827 28.7844C11.5655 28.7116 11.1484 28.6183 10.7401 28.5076C10.5446 28.4552 10.4309 28.2571 10.4834 28.0619C10.5359 27.8668 10.7371 27.7531 10.9297 27.8056C11.3176 27.9104 11.7143 27.9978 12.1081 28.0678C12.3064 28.1027 12.4377 28.2921 12.4027 28.4902C12.3765 28.6649 12.2219 28.7902 12.0468 28.7902ZM20.5847 27.6512C20.4476 27.6512 20.3163 27.5754 20.255 27.4414C20.1675 27.2608 20.2463 27.0423 20.4301 26.9579C21.2847 26.5559 22.0985 26.0606 22.854 25.4897C23.0145 25.3673 23.242 25.3994 23.3645 25.5596C23.487 25.7198 23.4549 25.947 23.2945 26.0694C22.4982 26.6695 21.6406 27.1909 20.7422 27.6133C20.6897 27.6424 20.6372 27.6512 20.5847 27.6512ZM25.2021 24.1642C25.1176 24.1642 25.03 24.1351 24.963 24.0739C24.8113 23.9428 24.7967 23.7127 24.928 23.5612C25.5522 22.8504 26.1035 22.0726 26.5673 21.2482C26.6664 21.0734 26.8881 21.0122 27.0631 21.1113C27.2382 21.2103 27.2994 21.4317 27.2002 21.6065C26.7102 22.4717 26.1297 23.2903 25.4734 24.0389C25.4063 24.1234 25.3042 24.1642 25.2021 24.1642ZM28.0491 19.1274C28.0111 19.1274 27.9761 19.1216 27.9382 19.1099C27.7457 19.0488 27.6407 18.8449 27.7019 18.6526C27.9878 17.7554 28.1803 16.8202 28.2737 15.8793C28.2941 15.6783 28.472 15.5326 28.6733 15.553C28.8745 15.5734 29.0204 15.7511 29 15.9521C28.9008 16.9426 28.6966 17.9272 28.3962 18.874C28.3466 19.0284 28.2037 19.1274 28.0491 19.1274ZM28.6324 13.3711C28.4487 13.3711 28.2882 13.2313 28.2707 13.0449C28.1745 12.1039 27.979 11.1717 27.6903 10.2716C27.629 10.0793 27.734 9.87539 27.9265 9.81422C28.1161 9.75304 28.3232 9.85791 28.3845 10.0502C28.6879 10.9969 28.892 11.9787 28.9941 12.9691C29.0146 13.1701 28.8687 13.3478 28.6704 13.3682C28.6587 13.3711 28.6441 13.3711 28.6324 13.3711ZM26.8706 7.86244C26.7423 7.86244 26.6198 7.79543 26.5527 7.67891C26.086 6.85741 25.5318 6.08253 24.9075 5.37173C24.7734 5.22025 24.7879 4.99011 24.9396 4.85902C25.0913 4.72502 25.3217 4.73958 25.453 4.89106C26.1122 5.63973 26.6956 6.4554 27.1856 7.3206C27.2848 7.49538 27.2236 7.71678 27.0486 7.81583C26.9931 7.84787 26.9319 7.86244 26.8706 7.86244Z" fill="#242D3C"/>
<path d="M18.3648 14.1956C18.3648 16.2435 16.7022 17.904 14.6516 17.904C12.601 17.904 10.9384 16.2435 10.9384 14.1956C10.9384 12.1477 12.5981 10.4872 14.6516 10.4872C16.7051 10.4872 18.3648 12.1477 18.3648 14.1956Z" fill="#B1E5F6"/>
<path d="M14.6516 12.2846C16.3901 12.2846 17.8398 13.4819 18.2423 15.0957C18.3152 14.8073 18.3648 14.5073 18.3648 14.1985C18.3648 12.1506 16.7022 10.4901 14.6516 10.4901C12.601 10.4901 10.9384 12.1506 10.9384 14.1985C10.9384 14.5102 10.9879 14.8073 11.0609 15.0957C11.4634 13.4819 12.9102 12.2846 14.6516 12.2846Z" fill="white"/>
<path d="M14.6516 18.2244C11.4984 18.2244 8.76237 19.9955 7.37683 22.594C9.26991 24.3011 11.7785 25.344 14.5291 25.344C17.3614 25.344 19.9342 24.2399 21.8447 22.4425C20.43 19.9256 17.7436 18.2244 14.6516 18.2244Z" fill="#B1E5F6"/>
<path d="M14.57 20.3043C17.1018 20.3043 19.3479 21.4579 20.8588 23.2495C21.2001 22.996 21.5326 22.7309 21.8418 22.4396C20.433 19.9256 17.7436 18.2214 14.6516 18.2214C11.4984 18.2214 8.76237 19.9926 7.37683 22.5911C7.6481 22.8358 7.93688 23.063 8.23149 23.2786C9.73953 21.4637 12.0176 20.3043 14.57 20.3043Z" fill="#B1E5F6"/>
<path d="M14.6516 18.271C12.4026 18.271 10.5737 16.4445 10.5737 14.1985C10.5737 11.9525 12.4026 10.126 14.6516 10.126C16.9005 10.126 18.7294 11.9525 18.7294 14.1985C18.7294 16.4416 16.9005 18.271 14.6516 18.271ZM14.6516 10.8513C12.8052 10.8513 11.303 12.3516 11.303 14.1956C11.303 16.0396 12.8052 17.5398 14.6516 17.5398C16.498 17.5398 18.0002 16.0396 18.0002 14.1956C18.0002 12.3516 16.498 10.8513 14.6516 10.8513Z" fill="#242D3C"/>
<path d="M14.5262 25.7053C8.44146 25.7053 3.49146 20.7617 3.49146 14.685C3.49146 8.60824 8.44146 3.6676 14.5262 3.6676C20.6108 3.6676 25.5609 8.61115 25.5609 14.6879C25.5609 20.7646 20.6108 25.7053 14.5262 25.7053ZM14.5262 4.39588C8.844 4.39588 4.22068 9.01316 4.22068 14.6879C4.22068 20.3626 8.844 24.977 14.5262 24.977C20.2083 24.977 24.8316 20.3626 24.8316 14.6879C24.8316 9.01316 20.2083 4.39588 14.5262 4.39588Z" fill="#242D3C"/>
<path d="M14.5263 25.7052C11.7873 25.7052 9.16206 24.6944 7.12896 22.862L6.91895 22.6727L7.05312 22.4222C8.55242 19.6081 11.4635 17.8602 14.6517 17.8602C17.7611 17.8602 20.6372 19.5469 22.1598 22.2619L22.2999 22.5095L22.0928 22.7047C20.0363 24.6419 17.3498 25.7052 14.5263 25.7052ZM7.83778 22.5125C9.70169 24.103 12.0673 24.977 14.5292 24.977C17.0669 24.977 19.4909 24.0535 21.381 22.3697C19.9547 20.0305 17.4024 18.5856 14.6546 18.5856C11.831 18.5885 9.24665 20.0829 7.83778 22.5125Z" fill="#242D3C"/>
</svg>
