<svg width="41" height="49" viewBox="0 0 41 49" fill="none" xmlns="http://www.w3.org/2000/svg">
<path d="M22.3393 2.54225L24.9162 7.90229C25.0593 8.20245 25.3519 8.41685 25.688 8.45361L31.3273 9.06006C31.6323 9.12132 31.8252 9.40923 31.763 9.70327C31.7443 9.8074 31.6883 9.90542 31.6136 9.97893L27.4059 13.5564C27.1383 13.7769 27.0138 14.1261 27.0823 14.463L28.1964 20.3682C28.2338 20.6684 28.0097 20.944 27.7047 20.9747C27.5927 20.9869 27.4806 20.9685 27.381 20.9134L22.358 17.7035C22.0343 17.4952 21.6173 17.4952 21.2936 17.7035L16.2643 20.9195C15.9904 21.0604 15.6543 20.9624 15.5111 20.6868C15.4551 20.5888 15.4364 20.4785 15.4489 20.3682L16.5631 14.463C16.6315 14.1261 16.507 13.783 16.2394 13.5564L12.0317 9.97893C11.8201 9.7584 11.8201 9.41535 12.0442 9.20095C12.1251 9.12132 12.2184 9.07844 12.3305 9.05393L18.0818 8.44748C18.4241 8.41685 18.7229 8.20245 18.8661 7.89616L21.3434 2.5545C21.4803 2.27884 21.8164 2.16857 22.0903 2.30334C22.1961 2.3646 22.2833 2.44423 22.3393 2.54225Z" fill="#B2E5F6"/>
<path d="M37.1845 26.9595H23.6215L23.0115 30.5737V35.8174H17.9822V30.5737L17.3722 26.9595H8.37802C8.10414 26.9595 7.88007 27.1801 7.88007 27.4496C7.88007 27.4925 7.88629 27.5292 7.89251 27.566L9.00668 32.2216C9.0129 32.2644 9.0129 32.3012 9.00668 32.338V48.51C9.00668 48.7795 9.23076 49 9.50463 49H36.0143C36.2881 49 36.5122 48.7795 36.5122 48.51V32.3441C36.506 32.3012 36.506 32.2644 36.5122 32.2277L37.6264 27.5721C37.6949 27.3087 37.5392 27.0453 37.2716 26.9779C37.2405 26.9657 37.2156 26.9595 37.1845 26.9595Z" fill="#B2E5F6"/>
<path d="M14.3534 12.809L13.2019 18.7878C13.0649 19.5229 13.5567 20.2273 14.3036 20.3682C14.6459 20.4356 15.0069 20.3621 15.2995 20.1722L20.4159 16.9071L25.5324 20.1722C26.1735 20.5765 27.02 20.3927 27.4308 19.7679C27.6175 19.48 27.686 19.1247 27.63 18.7878L26.4723 12.809L30.7235 9.17643C31.2962 8.68637 31.3646 7.83489 30.8667 7.26519C30.6426 7.00791 30.3189 6.84251 29.9704 6.79963L24.2688 6.19318L21.6608 0.771878C21.4367 0.294068 20.945 -0.00609479 20.4159 3.09804e-05C19.8806 3.09804e-05 19.3951 0.312445 19.1773 0.790255L16.6689 6.20543L10.8304 6.81188C10.0772 6.89152 9.52949 7.5531 9.61041 8.29432C9.64775 8.63736 9.81581 8.94978 10.0835 9.17643L14.3534 12.809ZM17.3162 7.79201C17.6087 7.76138 17.8702 7.5776 17.9946 7.3142L20.4346 2.05829L22.9742 7.32645C23.0986 7.58373 23.3538 7.76138 23.6402 7.79201L29.1363 8.38008L25.022 11.8779C24.7979 12.0678 24.6921 12.3618 24.7419 12.6497L25.856 18.4141L20.8765 15.2409C20.5964 15.0633 20.2417 15.0633 19.9678 15.2409L14.9883 18.4141L16.1024 12.6497C16.1585 12.3618 16.0589 12.0617 15.8286 11.8718L11.7267 8.39233L17.3162 7.79201Z" fill="#232F3E"/>
<path d="M40.8257 25.5629C40.5456 25.2015 40.0166 25.1402 39.6556 25.4159L35.6222 28.4849L36.3629 25.4526C36.4687 25.0116 36.1948 24.5644 35.7466 24.4602C35.6782 24.4419 35.6159 24.4357 35.5475 24.4357H5.45258C4.99197 24.4357 4.61851 24.8033 4.61228 25.2566C4.61228 25.324 4.61851 25.3852 4.63718 25.4526L5.37788 28.491L1.35071 25.4159C0.983469 25.1402 0.454397 25.2015 0.1743 25.5629C-0.112022 25.9182 -0.0435537 26.4389 0.323685 26.7206L5.90696 30.9842V47.2787C5.90696 47.732 6.28042 48.0996 6.74102 48.0996H34.2403C34.7009 48.0996 35.0744 47.732 35.0744 47.2787V30.9842L40.6639 26.7206C41.0374 26.4389 41.1058 25.9243 40.8257 25.5629ZM33.5619 29.7529H24.0199L24.6361 26.0836H34.4831L33.5619 29.7529ZM18.7977 31.4007H22.1464V34.9966H18.7977V31.4007ZM22.8995 26.0836L22.2833 29.7529H18.6918L18.0756 26.0836H22.8995ZM16.3577 26.0836L16.9739 29.7529H7.40703L6.51072 26.0836H16.3577ZM33.4063 46.464H7.58754V31.4007H17.142V35.799C17.142 36.2523 17.5154 36.6199 17.976 36.6199H23.0053C23.4659 36.6199 23.8394 36.2523 23.8394 35.799V31.4007H33.3938L33.4063 46.464Z" fill="#232F3E"/>
</svg>
