<svg width="21" height="23" viewBox="0 0 21 23" fill="none" xmlns="http://www.w3.org/2000/svg">
<path d="M12.6739 0.425903H4.65515V14.0583H12.6739V0.425903Z" fill="#B1E5F6"/>
<path d="M12.6739 2.51862H4.65515V3.37037H12.6739V2.51862Z" fill="white"/>
<path d="M9.07261 0.425903H8.25574V5.46172H9.07261V0.425903Z" fill="white"/>
<path d="M14.678 18.9101H2.65027V18.0583H14.678C15.1369 18.0583 15.5673 17.8726 15.8908 17.5353C16.2148 17.1979 16.3929 16.7492 16.3929 16.2706C16.3929 15.7942 16.2148 15.345 15.8908 15.0072C15.5677 14.6699 15.1373 14.4837 14.678 14.4837H2.65027V13.632H14.678C15.3556 13.632 15.9915 13.9067 16.4691 14.4055C16.9467 14.9044 17.2098 15.567 17.2098 16.2706C17.2098 16.9768 16.9467 17.6402 16.4683 18.1374C15.9911 18.6358 15.3548 18.9101 14.678 18.9101Z" fill="#242D3C"/>
<path d="M14.9944 14.4842H2.33379L0 5.03581H16.4844L17.7284 0H21.0004V0.851756H18.3617L14.9944 14.4842ZM2.96674 13.6324H14.3615L16.274 5.888H1.05422L2.96674 13.6324Z" fill="#242D3C"/>
<path d="M3.80473 23C2.94312 23 2.24182 22.2692 2.24182 21.3703C2.24182 20.4719 2.94312 19.7407 3.80473 19.7407C4.66633 19.7407 5.36763 20.4719 5.36763 21.3703C5.36763 22.2687 4.66633 23 3.80473 23ZM3.80473 20.5924C3.39339 20.5924 3.05869 20.941 3.05869 21.3703C3.05869 21.7992 3.39339 22.1482 3.80473 22.1482C4.21606 22.1482 4.55035 21.7992 4.55035 21.3703C4.55076 20.941 4.21606 20.5924 3.80473 20.5924Z" fill="#242D3C"/>
<path d="M15.6481 23C14.7857 23 14.084 22.2692 14.084 21.3703C14.084 20.4719 14.7857 19.7407 15.6481 19.7407C16.5093 19.7407 17.2098 20.4719 17.2098 21.3703C17.2098 22.2687 16.5093 23 15.6481 23ZM15.6481 20.5924C15.2364 20.5924 14.9009 20.941 14.9009 21.3703C14.9009 21.7992 15.2364 22.1482 15.6481 22.1482C16.0586 22.1482 16.3929 21.7992 16.3929 21.3703C16.3929 20.941 16.0586 20.5924 15.6481 20.5924Z" fill="#242D3C"/>
<path d="M3.05869 5.46167H2.24182V14.0583H3.05869V5.46167Z" fill="#242D3C"/>
<path d="M5.06357 5.46167H4.2467V14.0583H5.06357V5.46167Z" fill="#242D3C"/>
<path d="M7.06846 5.46167H6.25159V14.0583H7.06846V5.46167Z" fill="#242D3C"/>
<path d="M9.07261 5.46167H8.25574V14.0583H9.07261V5.46167Z" fill="#242D3C"/>
<path d="M11.0779 5.46167H10.261V14.0583H11.0779V5.46167Z" fill="#242D3C"/>
<path d="M13.0819 5.46167H12.265V14.0583H13.0819V5.46167Z" fill="#242D3C"/>
<path d="M15.0864 5.46167H14.2695V14.0583H15.0864V5.46167Z" fill="#242D3C"/>
<path d="M14.6781 13.6324H2.65039V14.4842H14.6781V13.6324Z" fill="#242D3C"/>
<path d="M15.2095 11.4832H2.11975V12.3349H15.2095V11.4832Z" fill="#242D3C"/>
<path d="M15.7398 9.3335H1.58911V10.1853H15.7398V9.3335Z" fill="#242D3C"/>
<path d="M16.2704 7.18555H1.05811V8.03729H16.2704V7.18555Z" fill="#242D3C"/>
<path d="M16.801 5.03583H0.526978V5.88758H16.801V5.03583Z" fill="#242D3C"/>
</svg>
