<svg width="15" height="23" viewBox="0 0 15 23" fill="none" xmlns="http://www.w3.org/2000/svg">
<path d="M13.7506 19.1983C12.9666 21.2113 11.028 22.6358 8.76064 22.6358H8.73826C6.93357 22.6284 5.33957 21.7186 4.37298 20.3296L4.35638 20.3058C3.5507 19.1597 2.42359 16.8296 1.8174 15.5293C1.56581 14.9892 1.72093 14.3445 2.18937 13.9821C2.71955 13.5721 3.47391 13.6545 3.90531 14.17L5.38433 15.9369V15.8635C5.38433 15.1259 5.38433 9.02912 5.38433 6.73966C5.38433 6.12229 5.87901 5.62207 6.49446 5.62207H6.52224C7.11377 5.62207 7.59379 6.10745 7.59379 6.70647L7.6015 13.4663L7.61154 11.3092C7.61154 10.6918 8.10622 10.1916 8.71588 10.1916C9.32593 10.1916 9.82022 10.6922 9.82022 11.3092V14.1133V12.0933C9.82022 11.4759 10.3149 10.9757 10.9246 10.9757C11.5346 10.9757 12.0289 11.4763 12.0289 12.0933V15.0544C12.0289 15.0544 12.0289 13.9868 12.0289 13.1129C12.0289 12.4955 12.5236 11.9953 13.139 11.9953H13.1668C13.7587 11.9953 14.2384 12.4807 14.2384 13.0797V15.1723C14.2384 17.0752 14.0273 18.3002 13.7896 19.0757L13.7506 19.1983Z" fill="white"/>
<path d="M7.96854 22.0701H7.94539C6.06662 22.0623 4.29897 21.1286 3.21662 19.5725L3.2008 19.5498C2.37467 18.3749 1.23058 16.01 0.622456 14.705C0.283281 13.9779 0.495507 13.0954 1.12717 12.6069C1.84642 12.0504 2.86857 12.1621 3.45393 12.8615L4.14733 13.6897V5.7229C4.14733 4.85796 4.84536 4.1543 5.70313 4.1543H5.73092C6.56747 4.1543 7.24814 4.84313 7.24814 5.68971L7.25161 8.87925C7.45534 8.77968 7.68339 8.72384 7.92417 8.72384C8.57744 8.72384 9.13733 9.13464 9.36537 9.71452C9.59188 9.58331 9.85426 9.50834 10.1332 9.50834C10.8594 9.50834 11.4707 10.0164 11.6381 10.6993C11.855 10.5873 12.0969 10.5279 12.3477 10.5279H12.3755C12.7807 10.5279 13.1619 10.6876 13.4482 10.9778C13.7349 11.2679 13.8927 11.6533 13.8927 12.0633V14.156C13.8927 15.8195 13.7349 17.1776 13.4243 18.1929C13.4239 18.1944 13.4231 18.196 13.4227 18.198L13.3838 18.321C13.3807 18.3299 13.3776 18.3389 13.3741 18.3479C12.9516 19.4331 12.2254 20.3597 11.2746 21.0267C10.3003 21.7089 9.15739 22.0701 7.96854 22.0701ZM2.1582 13.1555C1.98687 13.1555 1.81478 13.2106 1.66853 13.3234C1.36872 13.5554 1.26762 13.9744 1.42891 14.32C2.02469 15.5977 3.14138 17.9086 3.92777 19.0274L3.94475 19.0516C4.86195 20.3707 6.35833 21.161 7.94809 21.1677H7.96932C9.99781 21.1677 11.7901 19.936 12.5391 18.0289L12.5731 17.9227C12.8571 16.9941 13.001 15.7265 13.001 14.1548V12.0622C13.001 11.8931 12.9358 11.7341 12.8177 11.6143C12.6996 11.4944 12.5422 11.4288 12.3751 11.4288H12.3473C12.1687 11.4288 12.0012 11.4983 11.8762 11.6244C11.7516 11.7502 11.6833 11.9173 11.6833 12.0953V14.0369C11.6833 14.286 11.4838 14.4879 11.2376 14.4879C10.9914 14.4879 10.7919 14.286 10.7919 14.0369V11.0758C10.7919 10.7083 10.4963 10.4092 10.1332 10.4092C9.76976 10.4092 9.47457 10.7083 9.47457 11.0758V13.0958C9.47457 13.3449 9.27508 13.5468 9.0289 13.5468C8.78272 13.5468 8.58323 13.3449 8.58323 13.0958V10.2917C8.58323 9.92382 8.28765 9.62509 7.92456 9.62509C7.56107 9.62509 7.26588 9.92421 7.26588 10.2917L7.25585 12.4507C7.2547 12.699 7.05559 12.8998 6.81018 12.8998C6.80979 12.8998 6.80979 12.8998 6.80941 12.8998C6.56361 12.8994 6.36489 12.6979 6.36451 12.4491L6.35679 5.68932C6.35679 5.33983 6.07626 5.05555 5.73092 5.05555H5.70313C5.33695 5.05555 5.03906 5.35467 5.03906 5.72212V14.9194C5.03906 15.1088 4.92253 15.2779 4.74696 15.3427C4.57139 15.4079 4.37422 15.3552 4.25344 15.2107L2.77442 13.4437C2.61467 13.2543 2.3874 13.1555 2.1582 13.1555Z" fill="#F5911E"/>
<path d="M2.32325 6.02021H0.695673C0.449492 6.02021 0.25 5.81832 0.25 5.56919C0.25 5.32005 0.449492 5.11816 0.695673 5.11816H2.32325C2.56943 5.11816 2.76892 5.32005 2.76892 5.56919C2.76892 5.81832 2.56943 6.02021 2.32325 6.02021Z" fill="#F5911E"/>
<path d="M3.37246 3.60677C3.25863 3.60677 3.1448 3.56304 3.05799 3.47517L1.90502 2.31268C1.73061 2.13696 1.73023 1.85112 1.90387 1.675C2.0775 1.49889 2.35996 1.49811 2.53398 1.67383L3.68694 2.83672C3.86135 3.01244 3.86174 3.29828 3.6881 3.47439C3.60128 3.56264 3.48707 3.60677 3.37246 3.60677Z" fill="#F5911E"/>
<path d="M5.8002 2.64679C5.55479 2.64679 5.3553 2.44569 5.35453 2.19733L5.34913 0.550237C5.34797 0.301103 5.54669 0.0984372 5.79287 0.0976562C5.79326 0.0976562 5.79403 0.0976562 5.79441 0.0976562C6.03983 0.0976562 6.23932 0.29876 6.24009 0.547113L6.24549 2.19421C6.24626 2.44334 6.04754 2.64601 5.80136 2.64679C5.80097 2.64679 5.80059 2.64679 5.8002 2.64679Z" fill="#F5911E"/>
<path d="M8.18758 3.70086C8.07413 3.70086 7.96107 3.65752 7.87426 3.57044C7.69946 3.39511 7.69792 3.10966 7.87117 2.93277L9.01641 1.76207C9.18967 1.58518 9.47173 1.58361 9.64653 1.75895C9.82132 1.93428 9.82287 2.21973 9.64962 2.39662L8.50437 3.56732C8.41717 3.65635 8.30256 3.70086 8.18758 3.70086Z" fill="#F5911E"/>
<path d="M9.14539 6.1536C8.90075 6.1536 8.70126 5.95367 8.69972 5.7057C8.69817 5.45657 8.89612 5.25312 9.1423 5.25156L10.7699 5.24024C11.0157 5.23946 11.2171 5.439 11.2186 5.68813C11.2202 5.93727 11.0222 6.14071 10.7761 6.14227L9.14848 6.1536C9.14732 6.1536 9.14616 6.1536 9.14539 6.1536Z" fill="#F5911E"/>
</svg>
