<svg width="22" height="21" viewBox="0 0 22 21" fill="none" xmlns="http://www.w3.org/2000/svg">
<path d="M14.5453 21.0001H7.45386V18.6162H8.33378V20.1124H13.6654V18.6162H14.5453V21.0001Z" fill="#242D3C"/>
<path d="M15.8781 20.1124H6.12183V21.0001H15.8781V20.1124Z" fill="#242D3C"/>
<path d="M22 15.3129H0V1.19518C0 0.875815 0.123625 0.575186 0.347847 0.349511C0.568029 0.125058 0.866183 0 1.18535 0H20.8138C21.133 0 21.4316 0.125058 21.6542 0.351548C21.876 0.573964 21.9996 0.874593 21.9996 1.19518V15.3129H22ZM0.879919 14.4257H21.1197V1.19518C21.1197 1.11249 21.0882 1.0355 21.0312 0.978468C20.9569 0.9027 20.872 0.887221 20.8134 0.887221H1.18535C1.13767 0.887221 1.04677 0.898627 0.971628 0.975617C0.911835 1.03591 0.879919 1.1129 0.879919 1.19518V14.4257Z" fill="#242D3C"/>
<path d="M20.2086 1.80664H1.79175V13.5063H20.2086V1.80664Z" fill="#B1E5F6"/>
<path d="M20.8138 17.8169H1.18494C0.866991 17.8169 0.569241 17.6926 0.346635 17.4666C0.123625 17.2421 0 16.9419 0 16.6217V14.4257H22V16.6217C22 16.9423 21.8768 17.2429 21.6526 17.4682C21.43 17.6927 21.1318 17.8169 20.8138 17.8169ZM0.879919 15.3129V16.6217C0.879919 16.7044 0.911835 16.7818 0.969608 16.8396C1.02698 16.8979 1.10293 16.9293 1.18494 16.9293H20.8138C20.8963 16.9293 20.9734 16.8975 21.0304 16.8401C21.0882 16.7818 21.1197 16.7044 21.1197 16.6213V15.3125H0.879919V15.3129Z" fill="#242D3C"/>
<path d="M15.7424 7.55809C14.2444 8.28278 12.6122 8.67873 10.9513 8.71743C8.70912 8.75613 6.50205 8.15365 4.58223 6.98779C4.41941 6.89125 4.30104 7.07171 4.44163 7.19718C6.14734 8.86204 8.4344 9.77696 10.8075 9.74478C12.6728 9.7126 14.4807 9.07183 15.9598 7.92512C16.18 7.72226 15.9788 7.44525 15.7424 7.55809Z" fill="#232F3E"/>
<path d="M17.1221 6.66596C16.9689 6.4631 15.6495 6.3083 14.8576 6.94948C14.7393 7.04602 14.7619 7.17801 14.896 7.1556C15.3497 7.09124 16.3524 6.94296 16.5346 7.18778C16.7169 7.4326 16.3557 8.47584 16.1929 8.93982C16.1448 9.08158 16.2535 9.13617 16.3686 9.02659C17.0966 8.31494 17.2691 6.87208 17.1221 6.66596Z" fill="#232F3E"/>
</svg>
