<svg width="20" height="20" viewBox="0 0 20 20" fill="none" xmlns="http://www.w3.org/2000/svg">
<path d="M10.0001 19.2858C15.1284 19.2858 19.2858 15.1284 19.2858 10.0001C19.2858 4.87171 15.1284 0.714355 10.0001 0.714355C4.87171 0.714355 0.714355 4.87171 0.714355 10.0001C0.714355 15.1284 4.87171 19.2858 10.0001 19.2858Z" stroke="#C4C4C4" stroke-miterlimit="10"/>
<path d="M6.14279 8.85711C6.61618 8.85711 6.99993 8.47335 6.99993 7.99996C6.99993 7.52658 6.61618 7.14282 6.14279 7.14282C5.6694 7.14282 5.28564 7.52658 5.28564 7.99996C5.28564 8.47335 5.6694 8.85711 6.14279 8.85711Z" fill="#C4C4C4"/>
<path d="M14 8.85711C14.4734 8.85711 14.8571 8.47335 14.8571 7.99996C14.8571 7.52658 14.4734 7.14282 14 7.14282C13.5266 7.14282 13.1428 7.52658 13.1428 7.99996C13.1428 8.47335 13.5266 8.85711 14 8.85711Z" fill="#C4C4C4"/>
<path d="M4.71436 12.1428C5.85721 13.8571 7.71436 15 10.0001 15C12.2858 15 14.1429 13.8571 15.2858 12.1428" stroke="#C4C4C4" stroke-miterlimit="10"/>
</svg>
