<svg width="22" height="21" viewBox="0 0 22 21" fill="none" xmlns="http://www.w3.org/2000/svg">
<path d="M14.5453 21H7.45386V18.6161H8.33378V20.1124H13.6654V18.6161H14.5453V21Z" fill="#AED1EC"/>
<path d="M15.8781 20.1124H6.12183V21H15.8781V20.1124Z" fill="#AED1EC"/>
<path d="M22 15.3129H0V1.19518C0 0.875815 0.123625 0.575186 0.347847 0.349511C0.568029 0.125058 0.866183 0 1.18535 0H20.8138C21.133 0 21.4316 0.125058 21.6542 0.351548C21.876 0.573964 21.9996 0.874593 21.9996 1.19518V15.3129H22ZM0.879919 14.4257H21.1197V1.19518C21.1197 1.11249 21.0882 1.0355 21.0312 0.978468C20.9569 0.9027 20.872 0.887221 20.8134 0.887221H1.18535C1.13767 0.887221 1.04677 0.898627 0.971628 0.975617C0.911835 1.03591 0.879919 1.1129 0.879919 1.19518V14.4257Z" fill="#AED1EC"/>
<path d="M20.2086 1.80661H1.79175V13.5063H20.2086V1.80661Z" fill="#F5911E"/>
<path d="M20.8138 17.8169H1.18494C0.866991 17.8169 0.569241 17.6927 0.346635 17.4666C0.123625 17.2421 0 16.9419 0 16.6217V14.4257H22V16.6217C22 16.9423 21.8768 17.243 21.6526 17.4682C21.43 17.6927 21.1318 17.8169 20.8138 17.8169ZM0.879919 15.3129V16.6217C0.879919 16.7044 0.911835 16.7818 0.969608 16.8397C1.02698 16.8979 1.10293 16.9293 1.18494 16.9293H20.8138C20.8963 16.9293 20.9734 16.8975 21.0304 16.8401C21.0882 16.7818 21.1197 16.7044 21.1197 16.6213V15.3125H0.879919V15.3129Z" fill="#AED1EC"/>
</svg>
