<svg width="29" height="19" viewBox="0 0 29 19" fill="none" xmlns="http://www.w3.org/2000/svg">
<path d="M25.3258 4.11778H3.67297V18.5133H25.3258V4.11778Z" fill="#F7941D"/>
<path d="M25.8094 19H3.18994V3.63109H25.8094V19ZM4.15661 18.0273H24.8427V4.60379H4.15661V18.0273Z" fill="#AED1EC"/>
<path d="M10.4728 4.11778H9.5061V18.5133H10.4728V4.11778Z" fill="#AED1EC"/>
<path d="M9.60231 4.40952L7.03999 0.972699H1.93264L4.05972 3.82604L3.28611 4.40952L0 0H7.52367L10.3759 3.82604L9.60231 4.40952Z" fill="#AED1EC"/>
<path d="M25.7125 4.40952L24.9389 3.82604L27.066 0.972699H21.9593L19.397 4.40952L18.6234 3.82604L21.4757 0H29L25.7125 4.40952Z" fill="#AED1EC"/>
<path d="M22.3633 12.0688C20.8652 12.7934 19.233 13.1894 17.5722 13.2281C15.33 13.2668 13.1229 12.6643 11.2031 11.4985C11.0403 11.4019 10.9219 11.5824 11.0625 11.7078C12.7682 13.3727 15.0552 14.2876 17.4284 14.2554C19.2936 14.2233 21.1016 13.5825 22.5806 12.4358C22.8008 12.2329 22.5996 11.9559 22.3633 12.0688Z" fill="#232F3E"/>
<path d="M23.7429 11.1766C23.5898 10.9738 22.2703 10.819 21.4785 11.4602C21.3601 11.5567 21.3827 11.6887 21.5169 11.6663C21.9706 11.6019 22.9733 11.4536 23.1555 11.6985C23.3377 11.9433 22.9765 12.9865 22.8137 13.4505C22.7656 13.5923 22.8743 13.6468 22.9895 13.5373C23.7175 12.8256 23.89 11.3828 23.7429 11.1766Z" fill="#232F3E"/>
<path d="M13.0496 5.96571H12.0829V6.93841H13.0496V5.96571Z" fill="white"/>
<path d="M14.9829 5.96571H14.0162V6.93841H14.9829V5.96571Z" fill="white"/>
<path d="M16.9163 5.96571H15.9496V6.93841H16.9163V5.96571Z" fill="white"/>
</svg>
