<svg width="29" height="29" viewBox="0 0 29 29" fill="none" xmlns="http://www.w3.org/2000/svg">
<g clip-path="url(#clip0)">
<path d="M1.26295 19.8584C1.11711 19.8584 0.977094 19.7681 0.921673 19.6225C0.568726 18.6932 0.312037 17.7231 0.15744 16.7385C0.125354 16.5404 0.262449 16.354 0.4608 16.3219C0.662067 16.2928 0.845833 16.4268 0.877919 16.6249C1.02376 17.56 1.26879 18.4805 1.60423 19.3632C1.67424 19.5525 1.5809 19.7623 1.3913 19.8322C1.35046 19.8497 1.30671 19.8584 1.26295 19.8584ZM0.364541 14.1429C0.358708 14.1429 0.352874 14.1429 0.34704 14.1429C0.145773 14.1342 -0.00882413 13.9623 -7.33782e-05 13.7613C0.0495142 12.765 0.201194 11.7716 0.449132 10.8132C0.49872 10.618 0.699987 10.5015 0.892503 10.551C1.08794 10.6006 1.20461 10.8016 1.15503 10.9938C0.918756 11.9056 0.77291 12.8466 0.729156 13.7933C0.720405 13.9914 0.557058 14.1429 0.364541 14.1429ZM1.823 8.54683C1.76758 8.54683 1.71216 8.53517 1.65965 8.50896C1.4788 8.41865 1.40588 8.20017 1.49631 8.01955C1.93968 7.13106 2.47639 6.28334 3.09478 5.49971C3.2202 5.34241 3.44772 5.31328 3.60815 5.43854C3.76567 5.5638 3.79484 5.79103 3.66941 5.95125C3.08311 6.69409 2.57265 7.50102 2.15261 8.34582C2.08552 8.47109 1.95718 8.54683 1.823 8.54683ZM5.40498 3.99946C5.29997 3.99946 5.19787 3.95577 5.12495 3.86837C4.99661 3.71398 5.01411 3.48384 5.16871 3.35567C5.93294 2.71478 6.76134 2.14964 7.63934 1.68063C7.81727 1.5845 8.03895 1.6515 8.13229 1.8292C8.22855 2.0069 8.16146 2.22829 7.98353 2.32151C7.15221 2.77013 6.36172 3.30323 5.63833 3.91207C5.57124 3.97325 5.48665 3.99946 5.40498 3.99946ZM10.5037 1.25823C10.3462 1.25823 10.2004 1.15627 10.1537 0.996048C10.0954 0.803783 10.2062 0.599865 10.3987 0.544516C11.3526 0.264858 12.3414 0.0813318 13.3361 -0.000235252C13.5373 -0.0148008 13.7124 0.133768 13.7299 0.334772C13.7474 0.535777 13.5957 0.710563 13.3944 0.728042C12.4493 0.803783 11.5101 0.978569 10.6058 1.24658C10.5738 1.25531 10.5388 1.25823 10.5037 1.25823Z" fill="#12416B"/>
<path d="M14.9522 29C14.7567 29 14.5934 28.8427 14.5875 28.6475C14.5817 28.4465 14.7392 28.2776 14.9405 28.2717C15.8885 28.2426 16.8336 28.1203 17.7524 27.8989C17.9478 27.8522 18.1462 27.9717 18.1928 28.1698C18.2395 28.365 18.1199 28.563 17.9216 28.6097C16.9561 28.8398 15.9614 28.9709 14.9609 29C14.958 29 14.9551 29 14.9522 29ZM12.0469 28.7903C12.0265 28.7903 12.0031 28.7874 11.9827 28.7844C11.5656 28.7116 11.1485 28.6184 10.7401 28.5077C10.5447 28.4553 10.4309 28.2572 10.4834 28.062C10.5359 27.8668 10.7372 27.7532 10.9297 27.8056C11.3177 27.9105 11.7144 27.9979 12.1082 28.0678C12.3065 28.1028 12.4378 28.2921 12.4028 28.4902C12.3765 28.665 12.2219 28.7903 12.0469 28.7903ZM20.5847 27.6512C20.4476 27.6512 20.3164 27.5755 20.2551 27.4415C20.1676 27.2609 20.2464 27.0424 20.4301 26.9579C21.2848 26.5559 22.0986 26.0607 22.8541 25.4897C23.0145 25.3674 23.242 25.3994 23.3645 25.5596C23.4871 25.7199 23.455 25.9471 23.2945 26.0694C22.4982 26.6695 21.6406 27.191 20.7422 27.6134C20.6897 27.6425 20.6372 27.6512 20.5847 27.6512ZM25.2022 24.1643C25.1176 24.1643 25.0301 24.1351 24.963 24.0739C24.8113 23.9429 24.7968 23.7127 24.928 23.5612C25.5522 22.8504 26.1035 22.0726 26.5673 21.2482C26.6665 21.0734 26.8882 21.0123 27.0632 21.1113C27.2382 21.2104 27.2995 21.4318 27.2003 21.6065C26.7103 22.4717 26.1298 23.2903 25.4735 24.039C25.4064 24.1235 25.3043 24.1643 25.2022 24.1643ZM28.0491 19.1275C28.0112 19.1275 27.9762 19.1217 27.9383 19.11C27.7458 19.0488 27.6407 18.8449 27.702 18.6527C27.9879 17.7554 28.1804 16.8203 28.2737 15.8794C28.2941 15.6784 28.4721 15.5327 28.6733 15.5531C28.8746 15.5735 29.0205 15.7512 29 15.9522C28.9009 16.9427 28.6967 17.9273 28.3962 18.874C28.3466 19.0284 28.2037 19.1275 28.0491 19.1275ZM28.6325 13.3712C28.4487 13.3712 28.2883 13.2314 28.2708 13.0449C28.1745 12.104 27.9791 11.1718 27.6903 10.2716C27.6291 10.0794 27.7341 9.87545 27.9266 9.81428C28.1162 9.7531 28.3233 9.85798 28.3846 10.0502C28.6879 10.997 28.8921 11.9787 28.9942 12.9692C29.0146 13.1702 28.8688 13.3479 28.6704 13.3683C28.6588 13.3712 28.6442 13.3712 28.6325 13.3712ZM26.8707 7.8625C26.7423 7.8625 26.6198 7.7955 26.5527 7.67897C26.086 6.85747 25.5318 6.08259 24.9076 5.37179C24.7734 5.22031 24.788 4.99017 24.9397 4.85908C25.0914 4.72508 25.3218 4.73964 25.4531 4.89113C26.1123 5.63979 26.6957 6.45546 27.1857 7.32066C27.2849 7.49544 27.2236 7.71684 27.0486 7.81589C26.9932 7.84793 26.9319 7.8625 26.8707 7.8625Z" fill="#12416B"/>
<path d="M18.3649 14.1957C18.3649 16.2436 16.7023 17.9041 14.6517 17.9041C12.6011 17.9041 10.9385 16.2436 10.9385 14.1957C10.9385 12.1478 12.5982 10.4873 14.6517 10.4873C16.7052 10.4873 18.3649 12.1478 18.3649 14.1957Z" fill="#AED1EC"/>
<path d="M14.6517 12.2846C16.3902 12.2846 17.8399 13.4819 18.2424 15.0957C18.3154 14.8073 18.3649 14.5073 18.3649 14.1985C18.3649 12.1506 16.7023 10.4901 14.6517 10.4901C12.6011 10.4901 10.9385 12.1506 10.9385 14.1985C10.9385 14.5102 10.9881 14.8073 11.061 15.0957C11.4635 13.4819 12.9103 12.2846 14.6517 12.2846Z" fill="white"/>
<path d="M14.6517 18.2244C11.4985 18.2244 8.76243 19.9955 7.37689 22.594C9.26997 24.3011 11.7785 25.344 14.5292 25.344C17.3615 25.344 19.9342 24.2399 21.8448 22.4425C20.4301 19.9256 17.7436 18.2244 14.6517 18.2244Z" fill="#AED1EC"/>
<path d="M14.57 20.3044C17.1019 20.3044 19.3479 21.458 20.8589 23.2496C21.2002 22.9961 21.5327 22.731 21.8419 22.4397C20.433 19.9257 17.7436 18.2216 14.6517 18.2216C11.4985 18.2216 8.76243 19.9927 7.37689 22.5912C7.64817 22.8359 7.93694 23.0631 8.23155 23.2787C9.7396 21.4638 12.0177 20.3044 14.57 20.3044Z" fill="#AED1EC"/>
<path d="M14.6517 18.271C12.4028 18.271 10.5739 16.4445 10.5739 14.1985C10.5739 11.9525 12.4028 10.126 14.6517 10.126C16.9006 10.126 18.7296 11.9525 18.7296 14.1985C18.7296 16.4416 16.9006 18.271 14.6517 18.271ZM14.6517 10.8513C12.8053 10.8513 11.3031 12.3516 11.3031 14.1956C11.3031 16.0396 12.8053 17.5398 14.6517 17.5398C16.4981 17.5398 18.0003 16.0396 18.0003 14.1956C18.0003 12.3516 16.4981 10.8513 14.6517 10.8513Z" fill="#12416B"/>
<path d="M14.5263 25.7053C8.44159 25.7053 3.49158 20.7617 3.49158 14.685C3.49158 8.60824 8.44159 3.6676 14.5263 3.6676C20.611 3.6676 25.561 8.61115 25.561 14.6879C25.561 20.7646 20.611 25.7053 14.5263 25.7053ZM14.5263 4.39588C8.84412 4.39588 4.22081 9.01316 4.22081 14.6879C4.22081 20.3626 8.84412 24.977 14.5263 24.977C20.2084 24.977 24.8317 20.3626 24.8317 14.6879C24.8317 9.01316 20.2084 4.39588 14.5263 4.39588Z" fill="#12416B"/>
<path d="M14.5263 25.7052C11.7873 25.7052 9.16206 24.6944 7.12896 22.862L6.91895 22.6727L7.05312 22.4222C8.55242 19.6081 11.4635 17.8602 14.6517 17.8602C17.7611 17.8602 20.6372 19.5469 22.1598 22.2619L22.2999 22.5095L22.0928 22.7047C20.0363 24.6419 17.3498 25.7052 14.5263 25.7052ZM7.83778 22.5125C9.70169 24.103 12.0673 24.977 14.5292 24.977C17.0669 24.977 19.4909 24.0535 21.381 22.3697C19.9547 20.0305 17.4024 18.5856 14.6546 18.5856C11.831 18.5885 9.24665 20.0829 7.83778 22.5125Z" fill="#12416B"/>
</g>
<defs>
<clipPath id="clip0">
<rect width="29" height="29" fill="white"/>
</clipPath>
</defs>
</svg>
