<svg width="40" height="28" viewBox="0 0 40 28" fill="none" xmlns="http://www.w3.org/2000/svg">
<g clip-path="url(#clip0)" filter="url(#filter0_d)">
<path d="M23.3334 0.666626H4.66669V14.3333H23.3334V0.666626Z" fill="#F7941D"/>
<path d="M11.23 20C9.53493 20 8.15417 18.6089 8.15417 16.9012C8.15417 15.1934 9.53493 13.8024 11.23 13.8024C12.9251 13.8024 14.3059 15.1934 14.3059 16.9012C14.3099 18.6089 12.9291 20 11.23 20ZM11.23 14.7966C10.0801 14.7966 9.14497 15.7386 9.14497 16.8972C9.14497 18.0557 10.0801 18.9978 11.23 18.9978C12.38 18.9978 13.3151 18.0557 13.3151 16.8972C13.3191 15.7386 12.38 14.7966 11.23 14.7966Z" fill="#12416B"/>
<path d="M29.5498 20C27.8547 20 26.474 18.6089 26.474 16.9012C26.474 15.1934 27.8547 13.8024 29.5498 13.8024C31.2449 13.8024 32.6257 15.1934 32.6257 16.9012C32.6297 18.6089 31.2489 20 29.5498 20ZM29.5498 14.7966C28.3999 14.7966 27.4648 15.7386 27.4648 16.8972C27.4648 18.0557 28.3999 18.9978 29.5498 18.9978C30.6998 18.9978 31.6349 18.0557 31.6349 16.8972C31.6349 15.7386 30.6998 14.7966 29.5498 14.7966Z" fill="#12416B"/>
<path d="M35.5026 17.3983H32.1323C31.8577 17.3983 31.6349 17.1738 31.6349 16.8972C31.6349 16.6205 31.8577 16.3961 32.1323 16.3961H35.0052V9.00779L33.1271 3.43153H25.7816V16.4001H26.9674C27.242 16.4001 27.4648 16.6246 27.4648 16.9012C27.4648 17.1778 27.242 17.4023 26.9674 17.4023H25.2882C25.0137 17.4023 24.7908 17.1778 24.7908 16.9012V2.93042C24.7908 2.65382 25.0137 2.42932 25.2882 2.42932H33.4812C33.6921 2.42932 33.8831 2.56562 33.9507 2.76606L35.9721 8.75925C35.988 8.81136 36 8.86348 36 8.9196V16.8931C36 17.1738 35.7772 17.3983 35.5026 17.3983Z" fill="#12416B"/>
<path d="M25.2883 17.3983H13.8125C13.538 17.3983 13.3151 17.1738 13.3151 16.8972C13.3151 16.6206 13.538 16.3961 13.8125 16.3961H25.2883C25.5628 16.3961 25.7857 16.6206 25.7857 16.8972C25.7817 17.1738 25.5588 17.3983 25.2883 17.3983Z" fill="#12416B"/>
<path d="M8.6476 17.3983H4.49739C4.22283 17.3983 4 17.1738 4 16.8972V0.501102C4 0.224494 4.22283 0 4.49739 0H23.7404C24.0149 0 24.2377 0.224494 24.2377 0.501102V13.9547H25.2882C25.5628 13.9547 25.7856 14.1792 25.7856 14.4558C25.7856 14.7324 25.5628 14.9569 25.2882 14.9569H23.7404C23.4658 14.9569 23.243 14.7324 23.243 14.4558V0.998196H4.9908V16.4001H8.6476C8.92216 16.4001 9.14499 16.6246 9.14499 16.9012C9.14499 17.1738 8.92216 17.3983 8.6476 17.3983Z" fill="#12416B"/>
<path d="M35.5026 9.42471H28.5432C28.2686 9.42471 28.0458 9.20022 28.0458 8.92361V2.93042C28.0458 2.65382 28.2686 2.42932 28.5432 2.42932C28.8177 2.42932 29.0406 2.65382 29.0406 2.93042V8.42652H35.5066C35.7812 8.42652 36.004 8.65101 36.004 8.92762C36 9.20022 35.7772 9.42471 35.5026 9.42471Z" fill="#12416B"/>
<path d="M35.5026 14.7965H34.8023C33.7717 14.7965 32.9321 13.9506 32.9321 12.9123C32.9321 11.8741 33.7717 11.0282 34.8023 11.0282H35.5026C35.7772 11.0282 36 11.2527 36 11.5293V14.2994C36 14.572 35.7772 14.7965 35.5026 14.7965ZM34.8023 12.0264C34.3168 12.0264 33.9229 12.4233 33.9229 12.9123C33.9229 13.4014 34.3168 13.7983 34.8023 13.7983H35.0092V12.0264H34.8023Z" fill="#12416B"/>
<path d="M23.7403 14.9529H12.1054C11.8309 14.9529 11.608 14.7284 11.608 14.4518C11.608 14.1752 11.8309 13.9507 12.1054 13.9507H23.7403C24.0149 13.9507 24.2377 14.1752 24.2377 14.4518C24.2377 14.7284 24.0149 14.9529 23.7403 14.9529Z" fill="#12416B"/>
<path d="M10.3507 14.9529H4.49739C4.22283 14.9529 4 14.7284 4 14.4518C4 14.1752 4.22283 13.9507 4.49739 13.9507H10.3546C10.6292 13.9507 10.852 14.1752 10.852 14.4518C10.852 14.7284 10.6252 14.9529 10.3507 14.9529Z" fill="#12416B"/>
<path d="M35.5026 20H6.23225C5.95769 20 5.73486 19.7755 5.73486 19.4989C5.73486 19.2223 5.95769 18.9978 6.23225 18.9978H35.5026C35.7771 18.9978 36 19.2223 36 19.4989C36 19.7755 35.7771 20 35.5026 20Z" fill="#12416B"/>
<path d="M30.5367 7.52858C30.4093 7.52858 30.282 7.48048 30.1865 7.38427C29.9915 7.18783 29.9915 6.87515 30.1865 6.67871L32.375 4.47386C32.57 4.27743 32.8844 4.27743 33.0754 4.47386C33.2703 4.67029 33.2703 4.98699 33.0754 5.17941L30.8868 7.38427C30.7913 7.48048 30.664 7.52858 30.5367 7.52858Z" fill="#12416B"/>
<path d="M31.2569 3.43155H25.2882C25.0137 3.43155 24.7908 3.20706 24.7908 2.93045V0.501102C24.7908 0.224494 25.0137 0 25.2882 0H28.0537C28.1174 0 28.185 0.0120265 28.2447 0.0400882L30.5884 1.02225C30.6879 1.06234 30.7675 1.1345 30.8232 1.2267L31.6866 2.67789C31.7782 2.83424 31.7821 3.02265 31.6946 3.183C31.6031 3.33534 31.4359 3.43155 31.2569 3.43155ZM25.7816 2.43335H30.3815L30.0512 1.88014L27.9502 0.998196H25.7777V2.43335H25.7816Z" fill="#12416B"/>
<path fill-rule="evenodd" clip-rule="evenodd" d="M19.5623 7.37628C18.0662 8.49073 15.8936 9.08003 14.0234 9.08003C11.4012 9.08003 9.04155 8.10588 7.25891 6.4783C7.11964 6.35002 7.24299 6.17764 7.41409 6.27385C9.33998 7.40434 11.7235 8.08183 14.1826 8.08183C15.8419 8.08183 17.6683 7.73306 19.3474 7.01549C19.5981 6.91526 19.809 7.19187 19.5623 7.37628Z" fill="#12416B"/>
<path fill-rule="evenodd" clip-rule="evenodd" d="M20.187 6.6587C19.996 6.41015 18.9217 6.54244 18.4362 6.59857C18.289 6.6146 18.2691 6.48632 18.4004 6.39412C19.2559 5.78879 20.6645 5.96117 20.8277 6.16562C20.9908 6.37007 20.7839 7.78919 19.9801 8.46668C19.8567 8.57091 19.7374 8.51478 19.7931 8.37848C19.9721 7.92549 20.378 6.90725 20.187 6.6587Z" fill="#12416B"/>
</g>
<defs>
<filter id="filter0_d" x="0" y="0" width="40" height="28" filterUnits="userSpaceOnUse" color-interpolation-filters="sRGB">
<feFlood flood-opacity="0" result="BackgroundImageFix"/>
<feColorMatrix in="SourceAlpha" type="matrix" values="0 0 0 0 0 0 0 0 0 0 0 0 0 0 0 0 0 0 127 0" result="hardAlpha"/>
<feOffset dy="4"/>
<feGaussianBlur stdDeviation="2"/>
<feComposite in2="hardAlpha" operator="out"/>
<feColorMatrix type="matrix" values="0 0 0 0 0 0 0 0 0 0 0 0 0 0 0 0 0 0 0.25 0"/>
<feBlend mode="normal" in2="BackgroundImageFix" result="effect1_dropShadow"/>
<feBlend mode="normal" in="SourceGraphic" in2="effect1_dropShadow" result="shape"/>
</filter>
<clipPath id="clip0">
<rect width="32" height="20" fill="white" transform="translate(4)"/>
</clipPath>
</defs>
</svg>
