<svg width="36" height="31" viewBox="0 0 36 31" fill="none" xmlns="http://www.w3.org/2000/svg">
<g clip-path="url(#clip0)" filter="url(#filter0_d)">
<path d="M15.375 9.48755H6.33331L8.08331 11.7875V22.7125L28.2083 22.425V12.075L32.2916 9.48755H22.9583L19.1666 11.5H18L15.375 9.48755Z" fill="#F7941D"/>
<path d="M27.0731 12.126H17.0429C16.8262 12.126 16.6425 11.9793 16.5947 11.7755C16.5469 11.5716 16.6535 11.3641 16.8519 11.2747L21.3195 9.27873C21.3783 9.25369 21.4445 9.23938 21.5106 9.23938H31.5408C31.7575 9.23938 31.9412 9.38604 31.989 9.58992C32.0368 9.79381 31.9302 10.0013 31.7318 10.0907L27.2642 12.0867C27.2054 12.1117 27.1393 12.126 27.0731 12.126ZM19.1372 11.2353H26.9739L29.4502 10.13H21.6098L19.1372 11.2353Z" fill="#AED1EC"/>
<path d="M17.0429 12.126H7.01273C6.89883 12.126 6.78494 12.083 6.70043 12.0079L4.14696 9.69719C4.00735 9.57199 3.96326 9.37884 4.03307 9.20714C4.10287 9.03545 4.27188 8.92456 4.45926 8.92456H14.4894C14.6033 8.92456 14.7172 8.96748 14.8017 9.0426L17.3552 11.3498C17.4948 11.4749 17.5389 11.6681 17.4691 11.8398C17.3993 12.0151 17.2303 12.126 17.0429 12.126ZM7.19276 11.2353H15.8782L14.3094 9.81881H5.62393L7.19276 11.2353Z" fill="#AED1EC"/>
<path d="M27.0731 23H7.01272C6.75921 23 6.55347 22.7997 6.55347 22.5528V11.6788C6.55347 11.432 6.75921 11.2317 7.01272 11.2317H27.0731C27.3266 11.2317 27.5323 11.432 27.5323 11.6788V22.5528C27.5323 22.8032 27.3266 23 27.0731 23ZM7.46831 22.1093H26.6138V12.1259H7.46831V22.1093Z" fill="#AED1EC"/>
<path d="M17.0429 23C16.7894 23 16.5836 22.7997 16.5836 22.5528V11.6788C16.5836 11.432 16.7894 11.2317 17.0429 11.2317C17.2964 11.2317 17.5021 11.432 17.5021 11.6788V22.5528C17.4985 22.8032 17.2964 23 17.0429 23Z" fill="#AED1EC"/>
<path d="M31.5407 23H4.45926C4.20575 23 4 22.8033 4 22.5565C4 22.3097 4.20575 22.1094 4.45926 22.1094H31.5444C31.7979 22.1094 32.0037 22.3097 32.0037 22.5565C32 22.8033 31.7943 23 31.5407 23Z" fill="#AED1EC"/>
<path d="M18.2223 11.6001C18.0275 11.6001 17.8512 11.4785 17.7851 11.2925L17.5867 10.6916C17.3772 10.0692 17.605 9.38957 18.1488 9.00683L19.2988 8.19485C19.5743 8.0017 19.5964 7.71196 19.5302 7.5045C19.4604 7.29703 19.2657 7.07884 18.9277 7.07884H17.5095C16.8372 7.07884 16.2456 6.66033 16.0362 6.03793L15.599 4.72518C15.4888 4.40683 15.2132 4.29237 14.9891 4.29237C14.765 4.29237 14.4931 4.40325 14.3866 4.71803L13.9493 6.03078C13.7436 6.65317 13.1484 7.07168 12.476 7.07168H11.0579C10.7198 7.07168 10.5251 7.29345 10.4553 7.49734C10.3855 7.70481 10.4112 7.99454 10.6868 8.1877L11.8368 8.99967C12.0425 9.14275 12.0866 9.42176 11.936 9.62207C11.789 9.82238 11.5024 9.8653 11.2967 9.72223L10.1504 8.91025C9.59926 8.52036 9.37514 7.85862 9.58824 7.22549C9.80133 6.59237 10.3782 6.18459 11.0615 6.18459H12.4797C12.7553 6.18459 12.9978 6.01289 13.0823 5.75893L13.5232 4.44618C13.7326 3.81305 14.3131 3.40527 14.9965 3.40527C15.6798 3.40527 16.2603 3.81305 16.4697 4.44618L16.907 5.75893C16.9915 6.01289 17.234 6.18459 17.5095 6.18459H18.9277C19.6111 6.18459 20.1879 6.59237 20.401 7.22549C20.6141 7.85862 20.39 8.52036 19.8389 8.91025L18.6889 9.72223C18.4648 9.87961 18.3729 10.1586 18.4574 10.4126L18.6595 11.0135C18.7366 11.246 18.6044 11.5 18.3656 11.5751C18.3141 11.593 18.2664 11.6001 18.2223 11.6001Z" fill="#AED1EC"/>
<path d="M25.225 10.13C25.0303 10.13 24.854 10.012 24.7915 9.82239L24.685 9.50762C24.4278 8.73857 24.707 7.90513 25.3794 7.42939L26.9078 6.34914C27.3376 6.0451 27.378 5.59082 27.2678 5.26532C27.1613 4.94339 26.8563 4.59642 26.3236 4.59642H24.4351C23.6048 4.59642 22.8736 4.08134 22.6201 3.31229L22.036 1.56314C21.8706 1.06952 21.4408 0.894246 21.0881 0.894246C20.739 0.894246 20.3055 1.06952 20.1438 1.56314L19.5596 3.31229C19.3025 4.08134 18.575 4.59642 17.7447 4.59642C17.4911 4.59642 17.2854 4.39611 17.2854 4.1493C17.2854 3.90249 17.4911 3.70218 17.7447 3.70218C18.1782 3.70218 18.5566 3.4339 18.6889 3.03328L19.2731 1.28414C19.5339 0.504355 20.2467 0 21.0881 0C21.9331 0 22.6459 0.504355 22.903 1.28414L23.4872 3.03328C23.6195 3.4339 24.0016 3.70218 24.4314 3.70218H26.3199C27.1613 3.70218 27.874 4.20653 28.1349 4.98631C28.3958 5.7661 28.1239 6.58165 27.4405 7.06454L25.9121 8.14479C25.5631 8.3916 25.4161 8.82799 25.552 9.22862L25.6586 9.54339C25.7357 9.77589 25.6035 10.0299 25.3647 10.105C25.3206 10.1229 25.2728 10.13 25.225 10.13Z" fill="#AED1EC"/>
</g>
<defs>
<filter id="filter0_d" x="0" y="0" width="36" height="31" filterUnits="userSpaceOnUse" color-interpolation-filters="sRGB">
<feFlood flood-opacity="0" result="BackgroundImageFix"/>
<feColorMatrix in="SourceAlpha" type="matrix" values="0 0 0 0 0 0 0 0 0 0 0 0 0 0 0 0 0 0 127 0" result="hardAlpha"/>
<feOffset dy="4"/>
<feGaussianBlur stdDeviation="2"/>
<feComposite in2="hardAlpha" operator="out"/>
<feColorMatrix type="matrix" values="0 0 0 0 0 0 0 0 0 0 0 0 0 0 0 0 0 0 0.25 0"/>
<feBlend mode="normal" in2="BackgroundImageFix" result="effect1_dropShadow"/>
<feBlend mode="normal" in="SourceGraphic" in2="effect1_dropShadow" result="shape"/>
</filter>
<clipPath id="clip0">
<rect width="28" height="23" fill="white" transform="translate(4)"/>
</clipPath>
</defs>
</svg>
