<svg width="29" height="22" viewBox="0 0 29 22" fill="none" xmlns="http://www.w3.org/2000/svg">
<path d="M13.6944 11.275L12.0833 9.89998C9.72034 8.57998 6.44442 9.34998 5.10182 9.89998L3.2222 11.275L1.61108 15.95V18.975H15.3055V14.025L13.6944 11.275Z" fill="#AED1EC"/>
<path d="M15.5418 19.5502H1.71312C1.51248 19.5502 1.34271 19.3752 1.34271 19.1684V16.2574C1.34271 13.6167 2.71632 11.1352 4.93877 9.78302C5.12398 9.67167 5.34005 9.7353 5.44809 9.92619C5.54069 10.1012 5.49439 10.3398 5.30918 10.4352C3.31823 11.6442 2.08353 13.8712 2.08353 16.2414V18.7707H15.1559V16.2414C15.1559 13.8712 13.9212 11.6442 11.9303 10.4352C11.7605 10.3398 11.6988 10.1012 11.8068 9.91028C11.9148 9.7353 12.1463 9.67167 12.3161 9.76711C14.5386 11.1192 15.9122 13.5849 15.9122 16.2414V19.1525C15.9122 19.3752 15.7424 19.5502 15.5418 19.5502Z" fill="#12416B"/>
<path d="M9.66668 0.550024L8.32409 0.275024L6.71298 0.825024L5.10187 2.75002V4.40002L6.44446 7.15003L9.12965 7.70003L11.0093 6.60003L12.0833 4.95003L11.8148 3.02502L11.2778 1.65002L9.66668 0.550024Z" fill="#AED1EC"/>
<path d="M8.62747 7.98554C6.49761 7.98554 4.7536 6.188 4.7536 3.99277C4.7536 1.79754 6.48218 0 8.62747 0C10.7573 0 12.5013 1.79754 12.5013 3.99277C12.5013 6.20391 10.7573 7.98554 8.62747 7.98554ZM8.62747 0.763558C6.89889 0.763558 5.49442 2.21114 5.49442 3.99277C5.49442 5.7744 6.89889 7.22198 8.62747 7.22198C10.356 7.22198 11.7605 5.7744 11.7605 3.99277C11.7605 2.21114 10.356 0.763558 8.62747 0.763558Z" fill="#12416B"/>
<path d="M28.6142 19.5503H0.37041C0.169771 19.5503 0 19.3753 0 19.1685C0 18.9617 0.169771 18.7867 0.37041 18.7867H28.6142C28.8148 18.7867 28.9846 18.9617 28.9846 19.1685C29 19.3753 28.8302 19.5503 28.6142 19.5503Z" fill="#12416B"/>
<path d="M28.6142 22H0.37041C0.169771 22 0 21.825 0 21.6182C0 21.4114 0.169771 21.2365 0.37041 21.2365H28.6142C28.8148 21.2365 28.9846 21.4114 28.9846 21.6182C28.9846 21.825 28.8302 22 28.6142 22Z" fill="#12416B"/>
<path d="M26.8238 19.5502H20.4188C19.4619 19.5502 18.6902 18.7548 18.6902 17.7686C18.6902 16.7823 19.4619 15.9869 20.4188 15.9869H26.8238C27.0245 15.9869 27.1942 16.1619 27.1942 16.3687C27.1942 16.5755 27.0245 16.7505 26.8238 16.7505H20.4188C19.8786 16.7505 19.4311 17.2118 19.4311 17.7686C19.4311 18.3253 19.8786 18.7867 20.4188 18.7867H26.8238C27.0245 18.7867 27.1942 18.9616 27.1942 19.1684C27.1942 19.3752 27.0245 19.5502 26.8238 19.5502Z" fill="#12416B"/>
<path d="M27.2251 13.9667H20.8356C19.8787 13.9667 19.107 13.1713 19.107 12.1851C19.107 11.1988 19.8787 10.4034 20.8356 10.4034H27.2406C27.4412 10.4034 27.611 10.5784 27.611 10.7852C27.611 10.992 27.4412 11.167 27.2406 11.167H20.8356C20.2954 11.167 19.8478 11.6283 19.8478 12.1851C19.8478 12.7418 20.2954 13.2032 20.8356 13.2032H27.2406C27.4412 13.2032 27.611 13.3781 27.611 13.5849C27.5956 13.7917 27.4412 13.9667 27.2251 13.9667Z" fill="#12416B"/>
<path d="M24.8637 16.7505H18.4587C18.2581 16.7505 18.0883 16.5755 18.0883 16.3687C18.0883 16.1619 18.2581 15.987 18.4587 15.987H24.8637C25.4039 15.987 25.8515 15.5256 25.8515 14.9689C25.8515 14.4121 25.4039 13.9508 24.8637 13.9508H18.4587C18.2581 13.9508 18.0883 13.7758 18.0883 13.569C18.0883 13.3622 18.2581 13.1873 18.4587 13.1873H24.8637C25.8206 13.1873 26.5923 13.9826 26.5923 14.9689C26.5769 15.9552 25.8052 16.7505 24.8637 16.7505Z" fill="#12416B"/>
<path d="M22.95 15.3666H19.0761C18.8755 15.3666 18.7057 15.1916 18.7057 14.9848C18.7057 14.778 18.8755 14.603 19.0761 14.603H22.95C23.1506 14.603 23.3204 14.778 23.3204 14.9848C23.3204 15.1916 23.1506 15.3666 22.95 15.3666Z" fill="#12416B"/>
<path d="M26.5461 12.5669H23.6291C23.4284 12.5669 23.2587 12.3919 23.2587 12.1851C23.2587 11.9783 23.4284 11.8033 23.6291 11.8033H26.5461C26.7467 11.8033 26.9165 11.9783 26.9165 12.1851C26.9319 12.3919 26.7621 12.5669 26.5461 12.5669Z" fill="#12416B"/>
<path d="M25.8515 18.1504H22.9346C22.7339 18.1504 22.5641 17.9754 22.5641 17.7686C22.5641 17.5618 22.7339 17.3868 22.9346 17.3868H25.8515C26.0522 17.3868 26.2219 17.5618 26.2219 17.7686C26.2374 17.9754 26.0676 18.1504 25.8515 18.1504Z" fill="#12416B"/>
<path d="M15.6189 7.47646C15.4955 7.47646 15.3874 7.41283 15.3102 7.30147C15.2176 7.15831 15.2176 6.98333 15.3257 6.85607L16.4215 5.37667C15.8196 4.85173 15.4955 4.21543 15.4955 3.56322C15.4955 1.86113 17.579 0.524902 20.249 0.524902C22.9191 0.524902 25.0026 1.86113 25.0026 3.56322C25.0026 5.26532 22.9191 6.60155 20.249 6.60155C19.8015 6.60155 19.3539 6.56973 18.9372 6.49019L15.727 7.46055C15.6807 7.46055 15.6498 7.47646 15.6189 7.47646ZM20.249 1.28846C18.0729 1.28846 16.2363 2.32244 16.2363 3.56322C16.2363 4.07226 16.5604 4.5813 17.1469 4.99489C17.2395 5.05852 17.2858 5.15397 17.3012 5.24941C17.3166 5.36077 17.2858 5.45621 17.224 5.55166L16.5912 6.39475L18.7983 5.72664C18.86 5.71073 18.9217 5.71073 18.968 5.71073C19.3848 5.79027 19.8015 5.83799 20.2336 5.83799C22.4098 5.83799 24.2464 4.80401 24.2464 3.56322C24.2618 2.32244 22.4252 1.28846 20.249 1.28846Z" fill="#12416B"/>
<path d="M22.0548 3.21326H18.4279C18.2273 3.21326 18.0575 3.03828 18.0575 2.83149C18.0575 2.62469 18.2273 2.44971 18.4279 2.44971H22.0548C22.2555 2.44971 22.4252 2.62469 22.4252 2.83149C22.4252 3.03828 22.2555 3.21326 22.0548 3.21326Z" fill="#12416B"/>
<path d="M21.9468 4.77222H18.3199C18.1192 4.77222 17.9495 4.59724 17.9495 4.39045C17.9495 4.18365 18.1192 4.00867 18.3199 4.00867H21.9468C22.1474 4.00867 22.3172 4.18365 22.3172 4.39045C22.3172 4.61315 22.1474 4.77222 21.9468 4.77222Z" fill="#12416B"/>
</svg>
