<svg width="20" height="18" viewBox="0 0 20 18" fill="none" xmlns="http://www.w3.org/2000/svg">
<circle cx="7" cy="8" r="7" fill="#AED1EC"/>
<path d="M16.1496 18C15.126 18 14.2906 17.1144 14.2906 16.0229C14.2906 14.9314 15.1233 14.0458 16.1496 14.0458C17.1732 14.0458 18.0085 14.9314 18.0085 16.0229C18.0085 17.1144 17.1732 18 16.1496 18ZM16.1496 14.7509C15.4893 14.7509 14.9536 15.3234 14.9536 16.0229C14.9536 16.7252 15.4893 17.2949 16.1496 17.2949C16.8099 17.2949 17.3455 16.7224 17.3455 16.0229C17.3455 15.3234 16.8072 14.7509 16.1496 14.7509Z" fill="#12416B"/>
<path d="M19.6686 16.3755H17.6744C17.4914 16.3755 17.3429 16.2175 17.3429 16.0229C17.3429 15.8283 17.4914 15.6704 17.6744 15.6704H19.3371V11.1013L18.2366 7.65187H13.9566V15.6704H14.6222C14.8051 15.6704 14.9537 15.8283 14.9537 16.0229C14.9537 16.2175 14.8051 16.3755 14.6222 16.3755H13.6277C13.4448 16.3755 13.2963 16.2175 13.2963 16.0229V7.30214C13.2963 7.10753 13.4448 6.94958 13.6277 6.94958H18.4753C18.6158 6.94958 18.7431 7.04548 18.7882 7.1865L19.9841 10.9292C19.9948 10.9659 20.0027 11.0025 20.0027 11.042V16.0201C20.0001 16.2175 19.8516 16.3755 19.6686 16.3755Z" fill="#12416B"/>
<path d="M13.6277 16.3755H8.39038C8.2074 16.3755 8.0589 16.2175 8.0589 16.0229C8.0589 15.8283 8.2074 15.6703 8.39038 15.6703H13.6277C13.8107 15.6703 13.9592 15.8283 13.9592 16.0229C13.9565 16.2175 13.808 16.3755 13.6277 16.3755Z" fill="#12416B"/>
<path d="M19.6685 11.3974H15.5529C15.3699 11.3974 15.2214 11.2395 15.2214 11.0449V7.30214C15.2214 7.10753 15.3699 6.94958 15.5529 6.94958C15.7359 6.94958 15.8844 7.10753 15.8844 7.30214V10.6951H19.6712C19.8542 10.6951 20.0027 10.8531 20.0027 11.0477C20 11.2395 19.8515 11.3974 19.6685 11.3974Z" fill="#12416B"/>
<path d="M19.6685 14.7509H19.2522C18.6211 14.7509 18.1093 14.2066 18.1093 13.5353C18.1093 12.864 18.6211 12.3197 19.2522 12.3197H19.6685C19.8515 12.3197 20 12.4776 20 12.6723V14.404C20 14.5958 19.8515 14.7509 19.6685 14.7509ZM19.2548 13.022C18.9897 13.022 18.7722 13.2533 18.7722 13.5353C18.7722 13.8174 18.9897 14.0486 19.2548 14.0486H19.3397V13.022H19.2548Z" fill="#12416B"/>
<path d="M13.6277 14.8496H7.37738C7.1944 14.8496 7.0459 14.6917 7.0459 14.4971C7.0459 14.3025 7.1944 14.1445 7.37738 14.1445H13.6251C13.808 14.1445 13.9565 14.3025 13.9565 14.4971C13.9565 14.6917 13.808 14.8496 13.6277 14.8496Z" fill="#12416B"/>
<path d="M19.6685 18H1.72369C1.54071 18 1.39221 17.8421 1.39221 17.6475C1.39221 17.4529 1.54071 17.2949 1.72369 17.2949H19.6712C19.8542 17.2949 20.0027 17.4529 20.0027 17.6475C20.0027 17.8421 19.8515 18 19.6685 18Z" fill="#12416B"/>
<path d="M16.7304 10.2128C16.6455 10.2128 16.5606 10.1789 16.497 10.1084C16.3671 9.97024 16.3671 9.75024 16.497 9.61204L17.7911 8.23567C17.921 8.09747 18.1305 8.09747 18.2578 8.23567C18.3877 8.37387 18.3877 8.59386 18.2578 8.73207L16.9637 10.1084C16.9001 10.1789 16.8152 10.2128 16.7304 10.2128Z" fill="#12416B"/>
<path d="M6.86295 18.0001C5.83935 18.0001 5.00403 17.1144 5.00403 16.0229C5.00403 15.1937 5.49727 14.4463 6.23447 14.1643C6.26895 14.1502 6.30872 14.1445 6.34585 14.1445H7.3774C7.41453 14.1445 7.45431 14.153 7.48878 14.1643C8.22333 14.4463 8.71923 15.1937 8.71923 16.0229C8.71923 17.1144 7.88655 18.0001 6.86295 18.0001ZM6.40684 14.8496C5.96133 15.0442 5.66433 15.5096 5.66433 16.0258C5.66433 16.728 6.2 17.2978 6.8603 17.2978C7.5206 17.2978 8.05627 16.7252 8.05627 16.0258C8.05627 15.5096 7.75927 15.0442 7.31376 14.8496H6.40684Z" fill="#12416B"/>
<path d="M3.75498 18.0001C2.73138 18.0001 1.89606 17.1144 1.89606 16.0229C1.89606 15.1937 2.3893 14.4463 3.1265 14.1643C3.16097 14.1502 3.20075 14.1445 3.23788 14.1445H4.26943C4.30656 14.1445 4.34634 14.153 4.38081 14.1643C5.11536 14.4463 5.61125 15.1937 5.61125 16.0229C5.61125 17.1144 4.77858 18.0001 3.75498 18.0001ZM3.29887 14.8496C2.85336 15.0442 2.55636 15.5096 2.55636 16.0258C2.55636 16.728 3.09203 17.2978 3.75233 17.2978C4.41263 17.2978 4.9483 16.7252 4.9483 16.0258C4.9483 15.5096 4.65129 15.0442 4.20579 14.8496H3.29887Z" fill="#12416B"/>
<path d="M6.95491 14.7981C5.17289 14.7981 3.39087 14.076 2.03314 12.632C-0.679667 9.74666 -0.679667 5.05064 2.03314 2.16251C4.74595 -0.722791 9.16122 -0.722791 11.8767 2.16251C14.5895 5.04782 14.5895 9.74384 11.8767 12.632C10.5216 14.076 8.73693 14.7981 6.95491 14.7981ZM6.95491 0.701528C5.34261 0.701528 3.72765 1.35587 2.49986 2.66173C0.0442789 5.27345 0.0442789 9.52384 2.49986 12.1356C4.95544 14.7473 8.95173 14.7473 11.4073 12.1356C13.8629 9.52384 13.8629 5.27345 11.4073 2.66173C10.1822 1.35587 8.56987 0.701528 6.95491 0.701528Z" fill="#12416B"/>
<path d="M3.19014 14.8496H1.72369C1.54071 14.8496 1.39221 14.6917 1.39221 14.4971C1.39221 14.3025 1.54071 14.1445 1.72369 14.1445H3.19014C3.37312 14.1445 3.52162 14.3025 3.52162 14.4971C3.51897 14.6917 3.37312 14.8496 3.19014 14.8496Z" fill="#12416B"/>
<path d="M6.99554 14.0965C5.01729 14.0965 3.46863 11.1379 3.46863 7.3585C3.46863 3.58194 5.01729 0.620483 6.99554 0.620483C8.9738 0.620483 10.5225 3.57912 10.5225 7.3585C10.5225 11.1351 8.9738 14.0965 6.99554 14.0965ZM6.99554 1.23534C5.3965 1.23534 4.04407 4.03885 4.04407 7.3585C4.04407 10.6781 5.3965 13.4817 6.99554 13.4817C8.59459 13.4817 9.94702 10.6781 9.94702 7.3585C9.94702 4.03885 8.59459 1.23534 6.99554 1.23534Z" fill="#12416B"/>
<path d="M6.99553 11.1097C3.44475 11.1097 0.660339 9.46258 0.660339 7.35853C0.660339 5.25449 3.44209 3.60736 6.99553 3.60736C10.5463 3.60736 13.3307 5.25449 13.3307 7.35853C13.3307 9.46258 10.5463 11.1097 6.99553 11.1097ZM6.99553 4.21939C3.87434 4.21939 1.23844 5.65781 1.23844 7.35853C1.23844 9.05925 3.87434 10.4977 6.99553 10.4977C10.1167 10.4977 12.7526 9.05925 12.7526 7.35853C12.7526 5.65781 10.1167 4.21939 6.99553 4.21939Z" fill="#12416B"/>
<path d="M13.0417 7.66594H0.949387C0.790278 7.66594 0.660339 7.52774 0.660339 7.35851C0.660339 7.18929 0.790278 7.05109 0.949387 7.05109H13.0417C13.2008 7.05109 13.3307 7.18929 13.3307 7.35851C13.3281 7.52774 13.2008 7.66594 13.0417 7.66594Z" fill="#12416B"/>
<path d="M6.70648 13.7891V0.927911C6.70648 0.758685 6.83642 0.620483 6.99553 0.620483C7.15464 0.620483 7.28458 0.758685 7.28458 0.927911V13.7891C7.28458 13.9583 7.15464 14.0965 6.99553 14.0965C6.83642 14.0965 6.70648 13.9583 6.70648 13.7891Z" fill="#12416B"/>
</svg>
