<svg width="19" height="19" viewBox="0 0 19 19" fill="none" xmlns="http://www.w3.org/2000/svg">
<path d="M9 0.49999C3.5 1.04999 3 5.33332 2.5 7.49999H7L9.5 8.5L12 7.49999H16C16 5.49999 14 -1.08182e-05 9 0.49999Z" fill="#AED1EC"/>
<path d="M16.06 6.88008C15.94 6.88008 15.83 6.79008 15.82 6.66008C15.49 3.38008 12.66 0.810078 9.38998 0.810078C5.99998 0.810078 3.22998 3.33008 2.93998 6.66008C2.92998 6.79008 2.81998 6.89008 2.67998 6.88008C2.54998 6.87008 2.44998 6.75008 2.45998 6.62008C2.76998 3.03008 5.74998 0.330078 9.38998 0.330078C12.97 0.330078 15.94 3.03008 16.31 6.62008C16.32 6.75008 16.23 6.87008 16.09 6.88008C16.08 6.88008 16.07 6.88008 16.06 6.88008Z" fill="#12416B"/>
<path d="M17.14 6.65001C17.02 6.65001 16.91 6.56001 16.9 6.43001C16.64 3.89001 15.13 1.65001 12.87 0.460007C12.75 0.400007 12.71 0.250007 12.77 0.130007C12.83 0.0100073 12.98 -0.0299927 13.1 0.0300073C15.51 1.30001 17.12 3.68001 17.39 6.38001C17.4 6.51001 17.31 6.63001 17.17 6.64001C17.16 6.65001 17.15 6.65001 17.14 6.65001Z" fill="#12416B"/>
<path d="M1.62003 6.68997C1.46003 6.67997 1.37003 6.55997 1.38003 6.42997C1.65003 3.71997 3.26003 1.34997 5.67003 0.0799684C5.79003 0.00996836 5.93003 0.0599684 6.00003 0.179968C6.06003 0.289968 6.01003 0.439968 5.90003 0.499968C3.63003 1.69997 2.12003 3.92997 1.86003 6.47997C1.85003 6.59997 1.74003 6.68997 1.62003 6.68997Z" fill="#12416B"/>
<path d="M12.99 6.88002C12.86 6.88002 12.75 6.78002 12.75 6.65002C12.65 4.35002 12.05 2.27002 11.14 1.05002C9.99998 0.73002 8.78998 0.73002 7.64998 1.05002C6.73998 2.27002 6.12998 4.35002 6.03998 6.65002C6.01998 6.78002 5.91998 6.89002 5.76998 6.88002C5.63998 6.87002 5.53998 6.76002 5.53998 6.63002C5.63998 4.20002 6.29998 1.98002 7.29998 0.69002C7.32998 0.65002 7.36998 0.62002 7.41998 0.61002C8.68998 0.24002 10.06 0.24002 11.33 0.61002C11.38 0.62002 11.42 0.65002 11.45 0.69002C12.45 1.97002 13.11 4.19002 13.21 6.63002C13.22 6.76002 13.11 6.88002 12.98 6.88002C12.99 6.88002 12.99 6.88002 12.99 6.88002Z" fill="#12416B"/>
<path d="M5.78998 6.88002C5.63998 6.87002 5.53998 6.76002 5.53998 6.63002C5.63998 4.20002 6.29998 1.98002 7.29998 0.69002C7.32998 0.65002 7.36998 0.62002 7.41998 0.61002C8.68998 0.24002 10.06 0.24002 11.33 0.61002C11.38 0.62002 11.42 0.65002 11.45 0.69002C12.44 1.96002 13.08 4.05002 13.2 6.43002C13.21 6.56002 13.1 6.68002 12.97 6.68002C12.83 6.69002 12.72 6.58002 12.72 6.45002C12.6 4.24002 12 2.23002 11.11 1.04002C9.96998 0.72002 8.75998 0.72002 7.61998 1.04002C6.70998 2.26002 6.09998 4.34002 6.00998 6.64002C6.01998 6.78002 5.90998 6.88002 5.78998 6.88002Z" fill="#12416B"/>
<path d="M9.39003 6.88008C9.26003 6.88008 9.15002 6.77008 9.15002 6.64008V0.570078C9.15002 0.440078 9.26003 0.330078 9.39003 0.330078C9.52003 0.330078 9.63002 0.440078 9.63002 0.570078V6.64008C9.63002 6.77008 9.52003 6.88008 9.39003 6.88008Z" fill="#12416B"/>
<path d="M2.69998 6.88004C2.54998 6.87004 2.44998 6.75004 2.45998 6.62004C2.49998 6.20004 2.57998 5.80004 2.70998 5.32004C2.72998 5.27004 2.75998 5.23004 2.79998 5.20004C4.22998 4.09004 6.68998 3.42004 9.38998 3.42004C12.09 3.42004 14.55 4.08004 15.98 5.20004C16.09 5.28004 16.1 5.43004 16.02 5.54004C15.94 5.65004 15.79 5.66004 15.68 5.58004C14.35 4.55004 11.94 3.91004 9.38998 3.91004C6.86998 3.91004 4.49998 4.53004 3.15998 5.54004C3.03998 5.95004 2.96998 6.29004 2.93998 6.66004C2.92998 6.79004 2.82998 6.88004 2.69998 6.88004Z" fill="#12416B"/>
<path d="M9.39002 16.87C9.34002 16.87 9.30002 16.86 9.26002 16.83L8.52002 16.35C7.90002 15.95 7.17002 15.73 6.43002 15.73H1.26002C1.13002 15.73 1.02002 15.62 1.02002 15.49V7.55005C1.02002 7.42005 1.13002 7.31005 1.26002 7.31005H6.42002C7.26002 7.31005 8.07002 7.55005 8.77002 8.01005L9.38002 8.41005L9.99002 8.00005C10.69 7.55005 11.5 7.30005 12.34 7.30005H17.5C17.63 7.30005 17.74 7.41005 17.74 7.54005V15.48C17.74 15.61 17.63 15.72 17.5 15.72H12.34C11.6 15.72 10.88 15.93 10.25 16.34L9.51002 16.82C9.48002 16.86 9.43002 16.87 9.39002 16.87ZM1.50002 15.25H6.42002C7.26002 15.25 8.07002 15.49 8.77002 15.95L9.38002 16.35L9.99002 15.95C10.69 15.5 11.5 15.25 12.34 15.25H17.26V7.79005H12.34C11.6 7.79005 10.88 8.00005 10.25 8.41005L9.52002 8.89005C9.44002 8.94005 9.34002 8.94005 9.26002 8.89005L8.51002 8.41005C7.89002 8.00005 7.17002 7.79005 6.42002 7.79005H1.50002V15.25Z" fill="#12416B"/>
<path d="M9.39 18.08C9.34 18.08 9.3 18.07 9.26 18.04L8.43 17.5C7.72 17.04 6.91 16.8 6.06 16.8H0.24C0.11 16.81 0 16.7 0 16.56V12.73C0 12.6 0.11 12.49 0.24 12.49C0.37 12.49 0.48 12.6 0.48 12.73V16.32H6.05C6.99 16.32 7.89 16.59 8.68 17.1L9.38 17.56L10.08 17.1C10.86 16.59 11.77 16.32 12.71 16.32H18.28V12.73C18.28 12.6 18.39 12.49 18.52 12.49C18.65 12.49 18.76 12.6 18.76 12.73V16.56C18.76 16.69 18.65 16.8 18.52 16.8H12.71C11.87 16.8 11.05 17.04 10.34 17.5L9.51 18.04C9.48 18.07 9.43 18.08 9.39 18.08Z" fill="#12416B"/>
<path d="M9.39003 16.87C9.26003 16.87 9.15002 16.76 9.15002 16.63V12.45C9.15002 12.32 9.26003 12.21 9.39003 12.21C9.52003 12.21 9.63002 12.32 9.63002 12.45V16.63C9.63002 16.76 9.52003 16.87 9.39003 16.87Z" fill="#12416B"/>
<path d="M9.39003 11.0799C9.26003 11.0799 9.15002 10.9699 9.15002 10.8399V8.67994C9.15002 8.54994 9.26003 8.43994 9.39003 8.43994C9.52003 8.43994 9.63002 8.54994 9.63002 8.67994V10.8399C9.63002 10.9699 9.52003 11.0799 9.39003 11.0799Z" fill="#12416B"/>
<path d="M6.34001 9.40004H2.56001C2.43001 9.40004 2.32001 9.29004 2.32001 9.16004C2.32001 9.03004 2.43001 8.92004 2.56001 8.92004H6.34001C6.47001 8.92004 6.58001 9.03004 6.58001 9.16004C6.59001 9.29004 6.48001 9.40004 6.34001 9.40004Z" fill="#12416B"/>
<path d="M6.34001 10.88H2.56001C2.43001 10.88 2.32001 10.77 2.32001 10.64C2.32001 10.51 2.43001 10.4 2.56001 10.4H6.34001C6.47001 10.4 6.58001 10.51 6.58001 10.64C6.58001 10.77 6.48001 10.88 6.34001 10.88Z" fill="#12416B"/>
<path d="M6.34001 12.35H2.56001C2.43001 12.35 2.32001 12.24 2.32001 12.11C2.32001 11.98 2.43001 11.87 2.56001 11.87H6.34001C6.47001 11.87 6.58001 11.98 6.58001 12.11C6.59001 12.24 6.48001 12.35 6.34001 12.35Z" fill="#12416B"/>
<path d="M6.34001 13.83H2.56001C2.43001 13.83 2.32001 13.72 2.32001 13.59C2.32001 13.46 2.43001 13.35 2.56001 13.35H6.34001C6.47001 13.35 6.58001 13.46 6.58001 13.59C6.59001 13.72 6.48001 13.83 6.34001 13.83Z" fill="#12416B"/>
<path d="M16.21 9.40004H12.43C12.3 9.40004 12.19 9.29004 12.19 9.16004C12.19 9.03004 12.3 8.92004 12.43 8.92004H16.21C16.34 8.92004 16.45 9.03004 16.45 9.16004C16.45 9.29004 16.34 9.40004 16.21 9.40004Z" fill="#12416B"/>
<path d="M16.21 10.88H12.43C12.3 10.88 12.19 10.77 12.19 10.64C12.19 10.51 12.3 10.4 12.43 10.4H16.21C16.34 10.4 16.45 10.51 16.45 10.64C16.45 10.77 16.34 10.88 16.21 10.88Z" fill="#12416B"/>
<path d="M16.21 12.35H12.43C12.3 12.35 12.19 12.24 12.19 12.11C12.19 11.98 12.3 11.87 12.43 11.87H16.21C16.34 11.87 16.45 11.98 16.45 12.11C16.45 12.24 16.34 12.35 16.21 12.35Z" fill="#12416B"/>
<path d="M16.21 13.83H12.43C12.3 13.83 12.19 13.72 12.19 13.59C12.19 13.46 12.3 13.35 12.43 13.35H16.21C16.34 13.35 16.45 13.46 16.45 13.59C16.45 13.72 16.34 13.83 16.21 13.83Z" fill="#12416B"/>
</svg>
