<svg width="18" height="18" viewBox="0 0 18 18" fill="none" xmlns="http://www.w3.org/2000/svg">
<ellipse cx="8.99998" cy="12.75" rx="5.08696" ry="4.5" fill="#AED1EC"/>
<path d="M16.7317 12.9289H15.2C15.0732 12.9289 14.9659 12.8246 14.9659 12.7014C14.9659 12.5782 15.0732 12.4739 15.2 12.4739H16.7317C17.1707 12.4739 17.5219 12.1327 17.5219 11.7062V1.22275C17.5219 0.796209 17.1707 0.454976 16.7317 0.454976H1.25854C0.819512 0.454976 0.468293 0.796209 0.468293 1.22275V11.7062C0.468293 12.1327 0.819512 12.4739 1.25854 12.4739H2.79024C2.91707 12.4739 3.02439 12.5782 3.02439 12.7014C3.02439 12.8246 2.91707 12.9289 2.79024 12.9289H1.25854C0.565854 12.9289 0 12.3791 0 11.7062V1.22275C0 0.549763 0.565854 0 1.25854 0H16.7317C17.4244 0 17.9902 0.549763 17.9902 1.22275V11.7062C18 12.3791 17.4341 12.9289 16.7317 12.9289Z" fill="#12416B"/>
<path d="M15.6488 11.6872H15.2C15.0732 11.6872 14.9659 11.5829 14.9659 11.4597C14.9659 11.3365 15.0732 11.2322 15.2 11.2322H15.6488C15.7854 11.2322 15.9024 11.109 15.9024 10.9668V1.97156C15.9024 1.8199 15.7854 1.70615 15.6488 1.70615H2.35122C2.21464 1.70615 2.09757 1.82938 2.09757 1.97156V10.9573C2.09757 11.109 2.21464 11.2227 2.35122 11.2227H2.79025C2.91708 11.2227 3.02439 11.327 3.02439 11.4502C3.02439 11.5735 2.91708 11.6777 2.79025 11.6777H2.35122C1.95122 11.6777 1.62927 11.3554 1.62927 10.9479V1.97156C1.62927 1.57345 1.95122 1.2417 2.35122 1.2417H15.6488C16.0488 1.2417 16.3707 1.56397 16.3707 1.97156V10.9573C16.3707 11.3554 16.0488 11.6872 15.6488 11.6872Z" fill="#12416B"/>
<path d="M1.0732 8.11375C0.946367 8.11375 0.83905 8.00948 0.83905 7.88626V5.05213C0.83905 4.92891 0.946367 4.82465 1.0732 4.82465C1.20003 4.82465 1.30734 4.92891 1.30734 5.05213V7.87678C1.30734 8.00948 1.20003 8.11375 1.0732 8.11375Z" fill="#12416B"/>
<path d="M3.57076 10.5782C3.44393 10.5782 3.33661 10.4739 3.33661 10.3507V9.13742C3.33661 7.81989 4.43905 6.73932 5.8049 6.73932C6.361 6.73932 6.88783 6.91941 7.32685 7.25117C7.42442 7.327 7.44393 7.46918 7.36588 7.57344C7.28783 7.66823 7.14149 7.68719 7.03417 7.61136C6.68295 7.33647 6.25368 7.1943 5.8049 7.1943C4.70246 7.1943 3.81466 8.06633 3.81466 9.12794V10.3412C3.8049 10.4739 3.69758 10.5782 3.57076 10.5782Z" fill="#12416B"/>
<path d="M5.79512 6.436C5.08292 6.436 4.49756 5.86728 4.49756 5.17534C4.49756 4.48339 5.08292 3.91467 5.79512 3.91467C6.50731 3.91467 7.09268 4.48339 7.09268 5.17534C7.09268 5.86728 6.51707 6.436 5.79512 6.436ZM5.79512 4.36965C5.33658 4.36965 4.96585 4.72984 4.96585 5.17534C4.96585 5.62084 5.33658 5.98103 5.79512 5.98103C6.25366 5.98103 6.62439 5.62084 6.62439 5.17534C6.62439 4.72984 6.25366 4.36965 5.79512 4.36965Z" fill="#12416B"/>
<path d="M4.74147 9.40285C4.61464 9.40285 4.50732 9.29858 4.50732 9.17536V8.79621C4.50732 8.67299 4.61464 8.56873 4.74147 8.56873C4.8683 8.56873 4.97562 8.67299 4.97562 8.79621V9.16588C4.97562 9.29858 4.8683 9.40285 4.74147 9.40285Z" fill="#12416B"/>
<path d="M14.3902 10.5782C14.2634 10.5782 14.1561 10.474 14.1561 10.3507V9.13747C14.1561 8.06638 13.2585 7.20382 12.1658 7.20382C11.7171 7.20382 11.2878 7.346 10.9366 7.62088C10.839 7.69671 10.6829 7.67775 10.6049 7.58296C10.5268 7.48818 10.5463 7.33652 10.6439 7.26069C11.0829 6.92894 11.6097 6.74884 12.1658 6.74884C13.5219 6.74884 14.6341 7.81993 14.6341 9.14695V10.3602C14.6341 10.474 14.5268 10.5782 14.3902 10.5782Z" fill="#12416B"/>
<path d="M12.1658 6.436C11.4537 6.436 10.8683 5.86728 10.8683 5.17534C10.8683 4.48339 11.4537 3.91467 12.1658 3.91467C12.878 3.91467 13.4634 4.48339 13.4634 5.17534C13.4634 5.86728 12.878 6.436 12.1658 6.436ZM12.1658 4.36965C11.7073 4.36965 11.3366 4.72984 11.3366 5.17534C11.3366 5.62084 11.7073 5.98103 12.1658 5.98103C12.6244 5.98103 12.9951 5.62084 12.9951 5.17534C12.9854 4.72984 12.6146 4.36965 12.1658 4.36965Z" fill="#12416B"/>
<path d="M13.2293 9.40285C13.1024 9.40285 12.9951 9.29858 12.9951 9.17536V8.79621C12.9951 8.67299 13.1024 8.56873 13.2293 8.56873C13.3561 8.56873 13.4634 8.67299 13.4634 8.79621V9.16588C13.4634 9.29858 13.3561 9.40285 13.2293 9.40285Z" fill="#12416B"/>
<path d="M7.3171 6.61611C7.25856 6.61611 7.20978 6.59716 7.161 6.55924C7.06344 6.47393 7.05368 6.33175 7.14149 6.23697C7.60002 5.7346 8.25368 5.45972 8.98539 5.45972C9.63905 5.45972 10.2927 5.74408 10.7708 6.23697C10.8586 6.33175 10.8586 6.47393 10.761 6.55924C10.6634 6.64455 10.5171 6.63507 10.4293 6.54028C10.039 6.14218 9.51222 5.91469 8.98539 5.91469C8.39027 5.91469 7.86344 6.1327 7.49271 6.54028C7.44393 6.58768 7.37563 6.61611 7.3171 6.61611Z" fill="#12416B"/>
<path d="M8.98537 5.14694C8.27317 5.14694 7.68781 4.57822 7.68781 3.88627C7.68781 3.19433 8.27317 2.62561 8.98537 2.62561C9.69756 2.62561 10.2829 3.19433 10.2829 3.88627C10.2829 4.57822 9.69756 5.14694 8.98537 5.14694ZM8.98537 3.09007C8.52683 3.09007 8.1561 3.45026 8.1561 3.89575C8.1561 4.34125 8.52683 4.70144 8.98537 4.70144C9.4439 4.70144 9.81463 4.34125 9.81463 3.89575C9.80488 3.45026 9.43415 3.09007 8.98537 3.09007Z" fill="#12416B"/>
<path d="M8.98535 18C6.12681 18 3.7951 15.7441 3.7951 12.9573C3.7951 10.1801 6.11706 7.91467 8.98535 7.91467C11.8439 7.91467 14.1756 10.1706 14.1756 12.9573C14.1658 15.7346 11.8439 18 8.98535 18ZM8.98535 8.37913C6.39023 8.37913 4.27315 10.436 4.27315 12.9573C4.27315 15.4787 6.39023 17.5355 8.98535 17.5355C11.5805 17.5355 13.6975 15.4787 13.6975 12.9573C13.6975 10.436 11.5805 8.37913 8.98535 8.37913Z" fill="#12416B"/>
<path d="M8.98534 18C7.36583 18 6.09753 15.7914 6.09753 12.9573C6.09753 10.1327 7.36583 7.91467 8.98534 7.91467C10.6049 7.91467 11.8731 10.1232 11.8731 12.9573C11.8731 15.782 10.6049 18 8.98534 18ZM8.98534 8.37913C7.67802 8.37913 6.56583 10.4739 6.56583 12.9573C6.56583 15.4407 7.66827 17.5355 8.98534 17.5355C10.2927 17.5355 11.4049 15.4407 11.4049 12.9573C11.3951 10.4739 10.2927 8.37913 8.98534 8.37913Z" fill="#12416B"/>
<path d="M8.98535 15.763C6.07803 15.763 3.7951 14.5308 3.7951 12.9574C3.7951 11.3839 6.06828 10.1517 8.98535 10.1517C11.8927 10.1517 14.1756 11.3839 14.1756 12.9574C14.1756 14.5308 11.8927 15.763 8.98535 15.763ZM8.98535 10.6066C6.42925 10.6066 4.27315 11.6777 4.27315 12.9574C4.27315 14.2275 6.42925 15.3081 8.98535 15.3081C11.5414 15.3081 13.6975 14.237 13.6975 12.9574C13.6975 11.6872 11.5317 10.6066 8.98535 10.6066Z" fill="#12416B"/>
<path d="M8.98537 18C8.85854 18 8.75122 17.8958 8.75122 17.7725V8.15168C8.75122 8.02846 8.85854 7.92419 8.98537 7.92419C9.1122 7.92419 9.21951 8.02846 9.21951 8.15168V17.7725C9.21951 17.8958 9.1122 18 8.98537 18Z" fill="#12416B"/>
<path d="M13.9317 13.1848H4.02925C3.90242 13.1848 3.7951 13.0806 3.7951 12.9573C3.7951 12.8341 3.90242 12.7299 4.02925 12.7299H13.9317C14.0585 12.7299 14.1658 12.8341 14.1658 12.9573C14.1658 13.0806 14.0585 13.1848 13.9317 13.1848Z" fill="#12416B"/>
<path d="M14.9951 18H3.0049C2.87807 18 2.77075 17.8958 2.77075 17.7725C2.77075 17.6493 2.87807 17.545 3.0049 17.545H14.9951C15.122 17.545 15.2293 17.6493 15.2293 17.7725C15.2293 17.8958 15.122 18 14.9951 18Z" fill="#12416B"/>
</svg>
