<svg width="20" height="25" viewBox="0 0 20 25" fill="none" xmlns="http://www.w3.org/2000/svg">
<g clip-path="url(#clip0)">
<path d="M10 2.31476C5.7828 2.31358 2.36305 5.67675 2.36365 9.82344C2.36305 13.0092 4.38324 15.7304 7.23134 16.8211C7.40935 15.8831 8.2498 15.1672 9.25213 15.1672H10.7467C11.7514 15.1672 12.5918 15.8831 12.7692 16.8211C15.6179 15.7304 17.6375 13.0092 17.6363 9.82344C17.6363 5.67675 14.2178 2.31417 10 2.31476Z" fill="#B1E5F6"/>
<path d="M10.7461 25H9.25157C7.86695 25 6.74097 23.8923 6.74097 22.5308V17.1894C6.74097 15.8279 7.86754 14.7208 9.25157 14.7208H10.7461C12.1319 14.7208 13.2591 15.8285 13.2591 17.1894V22.5308C13.2591 23.8923 12.1319 25 10.7461 25ZM9.25157 15.6141C8.36811 15.6141 7.64952 16.3207 7.64952 17.1894V22.5308C7.64952 23.4001 8.36811 24.1072 9.25157 24.1072H10.7461C11.6308 24.1072 12.3506 23.4001 12.3506 22.5308V17.1894C12.3506 16.3207 11.6308 15.6141 10.7461 15.6141H9.25157Z" fill="#242D3C"/>
<path d="M10.6356 17.2816C10.6356 17.6276 10.3501 17.9083 9.99885 17.9083C9.64762 17.9083 9.36389 17.6276 9.36389 17.2816C9.36389 16.9351 9.64762 16.6555 9.99885 16.6555C10.3501 16.6555 10.6356 16.9351 10.6356 17.2816Z" fill="#242D3C"/>
<path d="M5.01105 18.3471C4.73807 18.192 4.46867 18.0223 4.21062 17.842L4.73687 17.1142C4.97163 17.2781 5.21653 17.4326 5.46503 17.5735L5.01105 18.3471ZM15.0069 18.3377L14.5523 17.5647C14.8002 17.4238 15.0445 17.2687 15.2787 17.1042L15.8067 17.8308C15.5487 18.0117 15.2799 18.1826 15.0069 18.3377ZM3.46276 17.264C3.22382 17.0608 2.99146 16.844 2.77403 16.6197L3.4305 16.0024C3.62882 16.2062 3.83967 16.4035 4.0577 16.5885L3.46276 17.264ZM16.5528 17.2517L15.9578 16.5768C16.1747 16.3924 16.3849 16.1944 16.5832 15.9895L17.2409 16.6056C17.0229 16.8311 16.7911 17.049 16.5528 17.2517ZM2.14921 15.9143C1.95329 15.6699 1.76692 15.4138 1.59608 15.1537L2.35888 14.6691C2.51478 14.9058 2.68383 15.1384 2.86243 15.3604L2.14921 15.9143ZM17.8633 15.899L17.1495 15.3463C17.3263 15.1255 17.4954 14.8929 17.6513 14.6544L18.4153 15.1378C18.2444 15.3998 18.0587 15.6558 17.8633 15.899ZM1.11821 14.3449C0.97306 14.0694 0.839257 13.7834 0.720984 13.495L1.56383 13.1614C1.67135 13.4233 1.7926 13.6835 1.92462 13.9337L1.11821 14.3449ZM18.8919 14.3272L18.0843 13.9179C18.2158 13.6671 18.337 13.4069 18.4439 13.1443L19.2874 13.4762C19.1703 13.7652 19.0365 14.0512 18.8919 14.3272ZM0.40798 12.6116C0.31838 12.3132 0.242518 12.0078 0.182785 11.703L1.07461 11.5332C1.12896 11.8104 1.19826 12.0883 1.27949 12.359L0.40798 12.6116ZM19.5986 12.5922L18.7265 12.3414C18.8071 12.0701 18.8752 11.7917 18.9296 11.515L19.8214 11.683C19.7623 11.9878 19.687 12.2933 19.5986 12.5922ZM0.0465922 10.7773C0.0161281 10.4689 0.000597336 10.1547 0 9.84341L0.908548 9.84165C0.909145 10.1253 0.923481 10.4108 0.950959 10.6915L0.0465922 10.7773ZM19.9558 10.7567L19.0514 10.6733C19.0783 10.3926 19.092 10.1065 19.092 9.82344V9.78526H20.0006V9.82344C20 10.1342 19.9851 10.4484 19.9558 10.7567ZM0.947375 8.99175L0.0430082 8.90952C0.0722776 8.59999 0.11648 8.28869 0.175019 7.98327L1.06744 8.14949C1.01368 8.42731 0.973657 8.71041 0.947375 8.99175ZM19.0478 8.93772C19.0198 8.65696 18.978 8.37386 18.9224 8.09663L19.8136 7.92512C19.8746 8.22996 19.9212 8.54125 19.9516 8.8502L19.0478 8.93772ZM1.26874 7.32309L0.396631 7.07405C0.485037 6.77568 0.588973 6.47848 0.705454 6.18892L1.54949 6.51901C1.44316 6.78155 1.34878 7.05232 1.26874 7.32309ZM18.7157 7.2714C18.6339 7.00005 18.5377 6.72987 18.4302 6.46908L19.2724 6.1337C19.3907 6.42151 19.4964 6.71812 19.5872 7.01649L18.7157 7.2714ZM1.9067 5.74547L1.0991 5.33726C1.24365 5.0612 1.40314 4.78808 1.57338 4.52671L2.33797 5.00834C2.18326 5.24622 2.03811 5.49408 1.9067 5.74547ZM18.0676 5.6973C17.9344 5.44709 17.7881 5.19982 17.6316 4.96311L18.3932 4.47679C18.5652 4.73698 18.7265 5.00893 18.8728 5.28498L18.0676 5.6973ZM2.83914 4.31468L2.12413 3.76374C2.31886 3.51941 2.52793 3.28094 2.74536 3.0554L3.40422 3.67036C3.2059 3.87534 3.01595 4.09207 2.83914 4.31468ZM17.1268 4.2718C16.9488 4.05096 16.7571 3.8354 16.5582 3.631L17.2134 3.01252C17.4326 3.23689 17.6429 3.47359 17.8388 3.71676L17.1268 4.2718ZM4.02843 3.08183L3.43169 2.40814C3.67003 2.20374 3.92091 2.00874 4.17717 1.82784L4.70641 2.5538C4.47345 2.71826 4.24527 2.89623 4.02843 3.08183ZM15.9303 3.04659C15.7123 2.86216 15.4829 2.68596 15.2488 2.52267L15.7738 1.79377C16.0313 1.97291 16.284 2.16674 16.5235 2.36937L15.9303 3.04659ZM5.43277 2.09156L4.97581 1.31978C5.24939 1.16354 5.53312 1.01788 5.81984 0.888074L6.20035 1.69921C5.93931 1.81726 5.68126 1.94942 5.43277 2.09156ZM14.52 2.06454C14.2704 1.92416 14.0117 1.79377 13.7501 1.67689L14.1252 0.863406C14.4131 0.991448 14.698 1.13476 14.9722 1.28982L14.52 2.06454ZM7.00137 1.38086L6.70211 0.537426C7.00078 0.435227 7.30781 0.345362 7.61424 0.271943L7.82988 1.13946C7.55152 1.20701 7.27256 1.28806 7.00137 1.38086ZM12.9461 1.36324C12.6749 1.2722 12.3959 1.19232 12.1158 1.12713L12.3266 0.258434C12.6348 0.330678 12.9419 0.418194 13.2405 0.518631L12.9461 1.36324ZM8.67869 0.977352L8.54788 0.0933888C8.85969 0.0487501 9.17807 0.0182079 9.49406 0.0023494L9.53945 0.894535C9.25213 0.909219 8.96243 0.936825 8.67869 0.977352ZM11.2664 0.969716C10.9832 0.930951 10.6935 0.905108 10.405 0.892773L10.445 0C10.7616 0.0135091 11.08 0.0422893 11.3918 0.0845785L11.2664 0.969716Z" fill="#242D3C"/>
<path d="M8.34417 6.16955C8.76231 5.76956 9.32679 5.56927 10.0382 5.56927C10.7275 5.56927 11.2753 5.72786 11.6827 6.04503C12.0895 6.3622 12.2932 6.81681 12.2932 7.40768C12.2932 7.68197 12.2454 7.92337 12.1504 8.13247C12.0548 8.34157 11.9413 8.51836 11.8093 8.66226C11.6773 8.80675 11.4975 8.9759 11.2705 9.17032C10.9701 9.42288 10.7443 9.65136 10.5943 9.85693C10.4438 10.0625 10.3691 10.3168 10.3691 10.6193H9.26944C9.26944 10.3309 9.31365 10.0784 9.40146 9.86222C9.48926 9.64607 9.5938 9.46752 9.71506 9.32714C9.83632 9.18676 10.003 9.02289 10.2156 8.83494C10.4647 8.61175 10.6481 8.41675 10.7658 8.25111C10.8828 8.08548 10.942 7.87639 10.942 7.62382C10.942 7.34248 10.8524 7.13163 10.6726 6.99125C10.4928 6.85087 10.2419 6.78039 9.91935 6.78039C9.58185 6.78039 9.31783 6.86908 9.12728 7.04528C8.93673 7.22208 8.83399 7.48345 8.81905 7.8294H7.70801C7.71338 7.12282 7.92604 6.56953 8.34417 6.16955ZM10.3405 11.8739C10.4832 12.0184 10.5549 12.2022 10.5549 12.4254C10.5549 12.6562 10.4832 12.8454 10.3405 12.9934C10.1977 13.1408 10.0161 13.2148 9.79629 13.2148C9.58364 13.2148 9.40564 13.139 9.26287 12.9875C9.12011 12.836 9.04843 12.6486 9.04843 12.4254C9.04843 12.2022 9.12011 12.0184 9.26287 11.8739C9.40564 11.73 9.58364 11.6577 9.79629 11.6577C10.0161 11.6577 10.1977 11.73 10.3405 11.8739Z" fill="#242D3C"/>
</g>
<defs>
<clipPath id="clip0">
<rect width="20" height="25" fill="white"/>
</clipPath>
</defs>
</svg>
