<svg width="29" height="19" viewBox="0 0 29 19" fill="none" xmlns="http://www.w3.org/2000/svg">
<path d="M25.3258 4.1178H3.67297V18.5133H25.3258V4.1178Z" fill="#B1E5F6"/>
<path d="M25.8094 19H3.18994V3.6311H25.8094V19ZM4.15661 18.0273H24.8427V4.6038H4.15661V18.0273Z" fill="#242D3C"/>
<path d="M10.4728 4.1178H9.5061V18.5133H10.4728V4.1178Z" fill="#242D3C"/>
<path d="M9.60231 4.40952L7.03999 0.972699H1.93264L4.05972 3.82604L3.28611 4.40952L0 0H7.52367L10.3759 3.82604L9.60231 4.40952Z" fill="#242D3C"/>
<path d="M25.7125 4.40952L24.9389 3.82604L27.066 0.972699H21.9593L19.397 4.40952L18.6234 3.82604L21.4757 0H29L25.7125 4.40952Z" fill="#242D3C"/>
<path d="M13.0497 5.9657H12.083V6.9384H13.0497V5.9657Z" fill="white"/>
<path d="M14.9829 5.9657H14.0162V6.9384H14.9829V5.9657Z" fill="white"/>
<path d="M16.9164 5.9657H15.9497V6.9384H16.9164V5.9657Z" fill="white"/>
<path d="M23.876 16.0819H18.076V17.0546H23.876V16.0819Z" fill="#242D3C"/>
<path d="M20.976 14.1365H18.076V15.1092H20.976V14.1365Z" fill="#242D3C"/>
</svg>
